<svg width="41" height="18" viewBox="0 0 41 18" fill="none" xmlns="http://www.w3.org/2000/svg">
<path d="M1 9.42762C6.17993 8.84488 11.4884 8.70542 16.6983 8.96591C19.6239 9.11219 22.4979 8.64848 25.4276 8.64848C29.8187 8.64848 34.2098 8.64848 38.6009 8.64848C40.4017 8.64848 38.868 8.69655 38.0815 8.38876C35.7561 7.47885 33.9394 6.41038 31.906 5.01247C30.0213 3.71674 28.3788 2.29572 26.25 1.37647C26.1206 1.32058 25.2093 0.763027 25.7306 1.11675C27.2473 2.14594 28.6689 3.29135 30.2468 4.23333C32.4585 5.55377 34.65 6.90575 36.8406 8.24448C37.2592 8.50025 37.6505 8.64848 38.1392 8.64848C38.2137 8.64848 39.0626 8.59853 39.0626 8.70619C39.0626 9.26778 36.0927 10.8705 35.5998 11.2456C32.8968 13.3022 29.1992 14.0038 26.0048 14.8672C24.4028 15.3002 22.4442 15.6466 21.1279 16.6996C20.967 16.8284 22.6211 16.3749 22.8305 16.3101C24.7853 15.705 26.6397 14.9374 28.5298 14.1602C30.3933 13.3939 31.9243 12.8783 33.5942 11.7651C34.3818 11.24 35.2424 10.6163 36.0615 10.2068" stroke="white" stroke-width="2" stroke-linecap="round" stroke-linejoin="round"/>
</svg>
