<svg width="377" height="133" viewBox="0 0 377 133" fill="none" xmlns="http://www.w3.org/2000/svg">
<path d="M9.99971 130C16.4163 128.687 24.9037 128.041 30.5553 124.444C34.8636 121.703 36.715 118.478 39.9997 115C42.6705 112.172 41.7584 109.113 45.4997 109.944C48.6096 110.635 52.8562 111 55.9997 111C79.1738 111 101.871 118 125 118C167.799 118 211.022 119 254 119C264.206 119 277.436 121.048 287 117.222C290.595 115.784 295.687 116.792 299.5 115.944C303.572 115.04 308.182 113.919 312 112.222C315.058 110.863 319.217 110.674 322.5 109.944C325.937 109.18 329.674 107 333 107C336.952 107 343.979 104.456 347.5 102.5C350.804 100.664 355.213 100.326 358.5 98.4999C372.653 90.6368 376 69.637 376 54.7777C376 50.4915 375.812 46.715 375.055 42.5555C374.276 38.2715 371.915 35.2241 370.222 31.2222C367.309 24.3367 358.22 18.0404 352.055 14.4444C346.269 11.0693 338.87 8.99994 332 8.99994C317.125 8.99994 301.799 6.99994 286.944 6.99994C279.756 6.99994 272.934 5.99994 265.777 5.99994C259.284 5.99994 251.34 7.26124 245 5.49994C238.616 3.72666 229.604 3.99994 223 3.99994C215.876 3.99994 209.038 3.55822 202 3.0555C187.908 2.04896 173.329 4.67549 159.333 2.77772C145.51 0.903393 130.957 1.99994 117 1.99994C106.027 1.99994 95.5145 3.61648 84.7775 3.99994C81.2368 4.1264 77.7351 4.99994 73.9997 4.99994C69.3165 4.99994 63.3363 3.95177 58.9997 5.77772C55.4261 7.2824 48.8388 5.99994 44.9997 5.99994C40.357 5.99994 35.5164 7.10585 31.0553 8.49994C14.5935 13.6443 1.99971 22.7158 1.99971 41.4999C1.99971 47.1117 0.5204 55.0723 2.05527 60.4444C2.74012 62.8414 3.85039 66.312 3.99971 68.9999C4.15708 71.8326 6.67461 74.3991 6.99971 76.9999C8.38884 88.1129 25.9997 93.6629 25.9997 104.5C25.9997 111.052 23.9684 114.36 20.9997 119.555C18.1517 124.54 11.3383 127.323 8.99971 132" stroke="white" stroke-width="2" stroke-linecap="round" stroke-linejoin="round"/>
</svg>
