<svg width="163" height="51" viewBox="0 0 163 51" fill="none" xmlns="http://www.w3.org/2000/svg">
<path d="M9.1608 26.8377C9.1608 33.1132 7.76642 38.3311 6.44099 44.5164C4.21692 44.5164 2.742 44.3805 1.30357 46.1785C0.882959 46.7043 0.806606 49.9997 1.68133 49.125C4.79508 46.0112 6.43559 48.3692 10.5207 48.5962C21.5648 49.2097 33.0697 49.9561 44.5183 49.9561C58.9953 49.9561 114.282 49.0945 128.733 48.5962C138.966 48.2433 159.981 46.6432 161.597 33.7128C162.913 23.1897 162.204 15.3329 154.193 8.55453C148.285 3.55504 133.53 2.48065 126.013 2.35942C114.31 2.17066 61.8606 0.999516 50.109 0.999516C39.2671 0.999516 13.2926 3.40834 8.48084 13.9942C6.58525 18.1645 9.1608 22.5402 9.1608 26.8377Z" stroke="white" stroke-linecap="round" stroke-linejoin="round"/>
</svg>
