<svg width="335" height="238" viewBox="0 0 335 238" fill="none" xmlns="http://www.w3.org/2000/svg">
<path d="M2.95458 235.646C12.0961 235.646 21.3706 234.671 30.3731 234.671C39.1077 234.671 46.438 228.223 53.1766 223.57C55.2013 222.172 57.7423 220.05 60.1262 220.05C64.2443 220.05 68.2413 222 72.3966 222C81.4096 222 91.0362 224.252 100.141 224.978C116.927 226.317 133.526 223.949 150.526 223.949C179.723 223.949 208.733 224.924 237.993 224.924C251.332 224.924 264.349 222.996 277.574 222.054C288.428 221.28 298.174 218.999 305.97 211.223C309.707 207.496 313.634 205.21 316.231 200.501C318.528 196.335 319.931 192.092 322.041 187.883C326.891 178.208 327.984 167.109 331.814 157.179C334.682 149.74 334.421 79.5539 332.791 71.7486C331.478 65.4634 331.14 58.099 327.904 52.3619C325.543 48.175 322.674 44.6265 320.086 40.6108C305.687 18.2708 279.477 13.3917 255.585 8.01079C248.41 6.39495 240.879 6.23713 233.596 5.30315C224.669 4.15839 215.201 2.71641 206.231 2.59552C191.075 2.39123 176.024 1.62077 160.842 1.62077C133.993 1.62077 105.072 -1.07277 78.749 4.76163C60.8129 8.73706 41.4607 14.8766 28.147 28.1556C18.4189 37.8584 12.7275 56.0459 12.7275 69.3117C12.7275 94.5363 17.2378 175.237 29.1243 197.631C31.0323 201.225 38.427 206.242 36.9426 210.519C35.1411 215.71 31.0088 220.878 27.1697 224.707C19.9526 231.906 10.3426 233.515 1 236.621" stroke="white" stroke-width="2" stroke-linecap="round" stroke-linejoin="round"/>
</svg>
