<?xml version="1.0" encoding="UTF-8" ?>
<!DOCTYPE svg PUBLIC "-//W3C//DTD SVG 1.1//EN" "http://www.w3.org/Graphics/SVG/1.1/DTD/svg11.dtd">
<svg width="4370pt" height="3333pt" viewBox="0 0 4370 3333" version="1.1" xmlns="http://www.w3.org/2000/svg">
<g id="#ffffffff">
</g>
<g id="#475d5bff">
<path fill="#475d5b" opacity="1.00" d=" M 3021.54 706.51 C 3029.85 700.76 3040.04 698.26 3050.02 697.74 C 3061.77 697.96 3073.79 701.42 3083.04 708.89 C 3097.16 719.32 3104.71 737.36 3103.56 754.73 C 3102.47 763.35 3100.28 772.08 3095.37 779.38 C 3089.16 788.81 3080.08 796.53 3069.43 800.43 C 3061.89 802.83 3053.94 804.60 3046.00 803.67 C 3036.53 802.53 3027.13 799.58 3019.47 793.76 C 3005.10 808.46 2989.53 822.99 2981.27 842.23 C 2978.08 850.21 2975.19 858.44 2974.37 867.06 C 2972.59 878.32 2973.74 889.78 2972.52 901.08 C 2972.25 908.06 2973.07 915.09 2971.82 922.02 C 3061.90 920.89 3152.31 936.88 3236.26 969.73 C 3310.46 999.06 3379.43 1042.59 3435.71 1099.30 C 3460.42 1124.63 3482.72 1152.41 3501.37 1182.52 C 3523.26 1217.87 3540.11 1256.44 3550.23 1296.81 C 3556.44 1321.09 3560.62 1345.94 3561.99 1370.97 C 3562.64 1383.61 3563.27 1396.30 3562.24 1408.95 C 3561.49 1434.48 3557.55 1459.88 3551.55 1484.70 C 3534.67 1556.38 3496.68 1622.11 3446.73 1675.81 C 3440.01 1682.72 3433.92 1690.25 3426.52 1696.47 C 3369.26 1751.66 3299.72 1793.49 3225.35 1821.29 C 3182.51 1837.39 3137.94 1848.54 3092.85 1856.13 C 3095.19 1866.30 3096.67 1876.69 3097.13 1887.12 C 3097.14 1888.57 3098.46 1889.52 3099.27 1890.65 C 3104.79 1896.91 3108.85 1904.30 3112.21 1911.91 C 3153.06 2001.38 3193.91 2090.85 3234.76 2180.32 C 3238.05 2187.23 3240.93 2194.40 3242.37 2201.97 C 3246.87 2223.44 3241.42 2246.66 3228.24 2264.14 C 3219.94 2275.39 3208.42 2284.10 3195.56 2289.51 C 3174.55 2299.00 3149.29 2298.38 3128.76 2287.91 C 3129.60 2308.39 3126.17 2329.20 3118.10 2348.08 C 3114.32 2356.57 3109.18 2364.42 3103.00 2371.35 C 3108.77 2444.10 3113.93 2516.94 3115.45 2589.92 C 3115.72 2604.63 3116.88 2619.60 3113.23 2634.02 C 3110.34 2648.57 3102.95 2662.09 3092.71 2672.76 C 3079.64 2686.60 3063.03 2697.00 3045.09 2703.27 C 3032.17 2707.37 3018.54 2710.23 3004.94 2708.72 C 2995.80 2707.37 2986.88 2704.17 2979.45 2698.61 C 2965.71 2688.54 2955.16 2674.69 2946.81 2659.97 C 2936.16 2641.59 2929.89 2620.32 2930.83 2598.97 C 2931.43 2576.32 2931.28 2553.62 2929.11 2531.06 C 2925.08 2485.18 2915.56 2439.95 2903.45 2395.57 C 2892.05 2353.35 2878.68 2311.70 2866.40 2269.74 C 2853.24 2224.55 2841.25 2178.82 2835.34 2132.05 C 2832.49 2107.50 2830.96 2082.69 2832.92 2058.01 C 2834.33 2033.28 2839.15 2008.82 2846.11 1985.07 C 2851.22 1967.55 2858.51 1950.78 2866.21 1934.27 C 2872.58 1918.48 2881.77 1903.79 2893.91 1891.80 C 2904.82 1881.02 2917.07 1871.68 2929.75 1863.08 C 2843.45 1856.71 2757.87 1835.23 2680.00 1797.18 C 2627.20 1771.39 2578.15 1737.81 2535.58 1697.31 C 2532.30 1694.24 2529.18 1691.03 2525.70 1688.22 C 2523.79 1687.04 2524.41 1684.65 2524.30 1682.81 C 2524.56 1683.52 2525.07 1684.93 2525.33 1685.64 C 2538.56 1685.68 2551.60 1683.10 2564.75 1681.96 C 2587.27 1679.10 2609.78 1676.04 2632.06 1671.61 C 2675.29 1663.15 2717.73 1651.14 2759.60 1637.53 C 2799.09 1624.72 2838.41 1611.36 2877.97 1598.74 C 2921.00 1584.96 2964.36 1572.21 3008.01 1560.54 C 3012.93 1559.24 3018.24 1558.50 3022.30 1555.15 C 3036.43 1543.75 3050.48 1532.20 3064.09 1520.16 C 3069.20 1515.09 3075.01 1510.71 3079.55 1505.07 C 3065.06 1500.83 3051.58 1492.87 3041.66 1481.40 C 3029.47 1467.65 3022.53 1449.39 3022.59 1431.01 C 3022.43 1411.43 3030.23 1391.95 3043.85 1377.88 C 3047.83 1373.53 3052.66 1370.12 3057.21 1366.40 C 2982.67 1335.75 2907.59 1306.28 2831.14 1280.68 C 2749.50 1253.14 2666.44 1228.99 2581.40 1214.51 C 2550.63 1209.42 2519.65 1205.17 2488.51 1203.16 C 2485.80 1209.06 2482.29 1214.56 2479.62 1220.50 C 2470.98 1215.34 2462.11 1210.57 2453.48 1205.41 C 2451.01 1204.09 2449.38 1201.18 2450.46 1198.43 C 2468.94 1166.36 2490.91 1136.27 2516.25 1109.29 C 2529.88 1095.22 2543.69 1081.27 2558.76 1068.74 C 2618.99 1017.48 2690.05 979.49 2765.28 955.41 C 2822.51 937.22 2882.07 926.19 2942.02 923.02 C 2945.73 923.05 2949.46 922.86 2953.16 922.31 C 2955.30 908.98 2954.29 895.46 2954.83 882.03 C 2955.56 873.45 2955.48 864.78 2957.48 856.35 C 2960.01 845.18 2963.26 833.99 2969.07 824.03 C 2978.68 807.20 2992.46 793.34 3006.07 779.73 C 3000.99 772.07 2998.56 762.96 2997.65 753.90 C 2997.13 744.94 2999.19 735.90 3002.81 727.74 C 3007.06 719.20 3013.57 711.75 3021.54 706.51 M 3042.45 716.56 C 3027.16 720.29 3014.97 735.04 3015.55 751.00 C 3015.02 769.39 3031.56 786.18 3049.97 785.90 C 3068.43 786.88 3085.64 770.51 3085.70 752.05 C 3086.53 738.41 3078.10 724.99 3065.82 719.22 C 3058.70 715.39 3050.23 715.04 3042.45 716.56 M 2745.70 981.56 C 2673.03 1008.61 2604.56 1048.74 2548.65 1102.76 C 2520.98 1129.21 2496.30 1158.85 2476.18 1191.45 C 2511.04 1193.70 2545.73 1198.19 2580.14 1204.21 C 2664.57 1219.27 2747.09 1243.39 2828.33 1270.59 C 2909.52 1297.78 2989.43 1328.64 3068.91 1360.42 C 3086.82 1352.75 3107.65 1352.18 3125.90 1359.04 C 3142.94 1365.33 3157.55 1377.94 3166.28 1393.88 C 3174.71 1409.02 3177.63 1427.08 3174.62 1444.13 C 3171.49 1462.39 3161.36 1479.31 3146.83 1490.79 C 3134.25 1500.88 3118.41 1506.69 3102.32 1507.39 C 3081.19 1532.69 3054.76 1552.73 3028.80 1572.75 C 3026.50 1574.46 3023.62 1574.91 3020.96 1575.67 C 2935.74 1597.89 2852.13 1625.74 2768.71 1653.82 C 2746.39 1661.19 2723.78 1667.59 2701.11 1673.77 C 2656.77 1685.56 2611.72 1695.02 2566.07 1699.94 C 2572.79 1706.25 2580.07 1711.92 2587.25 1717.71 C 2650.01 1766.85 2723.37 1801.67 2800.07 1822.80 C 2847.60 1835.92 2896.69 1843.05 2945.88 1845.63 C 2991.32 1847.56 3036.94 1845.82 3081.97 1839.23 C 3128.28 1832.68 3173.85 1821.01 3217.63 1804.57 C 3289.47 1777.62 3357.03 1737.74 3412.45 1684.42 C 3420.61 1677.60 3427.23 1669.24 3434.77 1661.79 C 3460.45 1633.63 3482.94 1602.43 3500.54 1568.57 C 3520.47 1530.12 3534.80 1488.53 3540.66 1445.53 C 3547.03 1398.58 3544.92 1350.39 3533.55 1304.34 C 3518.37 1244.60 3488.75 1188.86 3449.23 1141.69 C 3393.94 1075.26 3320.68 1025.13 3241.32 991.69 C 3200.94 974.73 3158.86 961.78 3115.88 953.35 C 3076.03 945.65 3035.54 941.27 2994.96 940.64 C 2910.34 938.86 2825.11 951.87 2745.70 981.56 M 3090.49 1372.74 C 3084.14 1373.25 3078.23 1375.85 3072.59 1378.62 C 3059.99 1384.78 3050.03 1395.87 3044.82 1408.86 C 3039.81 1419.48 3039.95 1431.70 3041.58 1443.09 C 3045.86 1461.59 3059.19 1477.92 3076.90 1485.06 C 3086.21 1489.61 3096.87 1489.87 3107.00 1489.01 C 3114.23 1488.54 3120.95 1485.48 3127.32 1482.25 C 3142.31 1474.37 3152.90 1459.42 3156.77 1443.09 C 3158.37 1431.86 3158.56 1419.82 3153.74 1409.31 C 3150.62 1401.93 3146.55 1394.82 3140.53 1389.44 C 3134.81 1383.04 3127.14 1378.90 3119.30 1375.70 C 3110.26 1371.79 3100.10 1371.91 3090.49 1372.74 M 2941.41 1877.24 C 2930.88 1883.98 2920.99 1891.66 2911.70 1900.02 C 2918.41 1897.86 2925.65 1895.45 2932.71 1897.43 C 2934.82 1897.92 2936.19 1899.68 2937.16 1901.55 C 2915.36 1921.47 2898.79 1946.83 2888.41 1974.42 C 2874.14 2012.11 2870.62 2053.01 2872.21 2093.02 C 2874.12 2139.95 2882.84 2186.30 2893.78 2231.88 C 2904.22 2274.78 2916.75 2317.14 2929.44 2359.43 C 2924.58 2362.38 2919.21 2364.30 2913.95 2366.36 C 2933.80 2436.08 2949.98 2507.79 2949.45 2580.66 C 2961.94 2582.70 2974.29 2586.13 2987.04 2586.12 C 3002.27 2587.76 3017.62 2586.98 3032.92 2587.09 C 3045.33 2586.32 3057.77 2585.56 3070.07 2583.53 C 3079.45 2582.75 3088.14 2578.89 3097.07 2576.19 C 3095.07 2517.71 3091.60 2459.33 3087.06 2401.01 C 3086.47 2390.01 3085.08 2379.07 3084.81 2368.06 C 3084.37 2362.23 3090.04 2359.28 3092.91 2355.06 C 3108.04 2334.94 3112.07 2308.65 3110.13 2284.09 C 3109.67 2279.79 3110.39 2274.46 3106.71 2271.38 C 3100.79 2265.28 3096.15 2258.03 3092.61 2250.33 C 3061.27 2181.69 3029.94 2113.05 2998.59 2044.42 C 2996.63 2040.58 2995.10 2036.39 2995.22 2032.04 C 2996.62 2028.33 3001.60 2028.19 3004.94 2028.75 C 3009.74 2030.46 3014.39 2033.88 3016.17 2038.87 C 3042.13 2095.61 3067.93 2152.43 3093.98 2209.13 C 3104.91 2206.15 3115.99 2203.75 3126.91 2200.72 C 3136.92 2197.13 3147.04 2193.76 3156.98 2189.93 C 3164.98 2185.96 3173.23 2182.43 3181.08 2178.14 C 3189.24 2172.14 3198.29 2167.18 3205.14 2159.59 C 3203.07 2154.55 3200.65 2149.67 3198.45 2144.71 C 3164.90 2071.23 3131.35 1997.75 3097.81 1924.27 C 3094.11 1916.30 3090.77 1907.88 3084.56 1901.47 C 3071.87 1887.01 3052.05 1878.96 3032.88 1881.51 C 3023.01 1881.90 3013.62 1885.39 3004.88 1889.76 C 3001.89 1891.57 2998.53 1889.85 2995.47 1889.38 C 2986.71 1887.18 2977.94 1885.03 2969.16 1882.96 C 2959.93 1880.92 2950.86 1877.98 2941.41 1877.24 Z" />
<path fill="#475d5b" opacity="1.00" d=" M 1421.23 722.36 C 1431.19 709.29 1447.80 702.27 1464.04 702.52 C 1474.70 703.30 1485.57 706.30 1494.03 713.10 C 1511.07 725.26 1519.10 748.47 1513.51 768.61 C 1510.39 782.54 1500.61 794.32 1488.43 801.44 C 1470.88 811.42 1447.69 810.22 1431.39 798.22 C 1419.44 810.68 1406.50 822.58 1397.80 837.68 C 1393.56 844.80 1390.83 852.67 1388.51 860.59 C 1384.19 877.03 1385.71 894.15 1385.00 910.96 C 1384.33 915.95 1384.82 921.00 1384.07 925.99 C 1444.36 924.97 1504.73 932.08 1563.24 946.64 C 1642.28 966.04 1718.01 1000.08 1783.55 1048.52 C 1814.41 1071.53 1843.20 1097.44 1868.23 1126.73 C 1912.15 1177.65 1945.68 1238.30 1961.19 1303.99 C 1964.95 1320.84 1969.23 1337.71 1970.13 1355.01 C 1992.20 1360.69 2010.39 1379.55 2014.79 1401.98 C 2017.31 1411.45 2016.34 1421.32 2016.53 1431.01 C 2016.30 1441.34 2017.41 1451.88 2014.69 1461.99 C 2009.73 1486.41 1988.36 1506.13 1963.83 1509.87 C 1961.85 1521.24 1959.77 1532.64 1956.75 1543.79 C 1954.05 1548.46 1948.64 1550.43 1944.45 1553.49 C 1941.27 1555.92 1936.69 1557.20 1935.18 1561.26 C 1916.02 1602.61 1889.83 1640.52 1859.23 1674.22 C 1851.60 1681.90 1844.83 1690.44 1836.54 1697.45 C 1766.99 1764.36 1679.57 1811.44 1587.00 1837.79 C 1550.21 1848.23 1512.61 1855.85 1474.62 1860.26 C 1475.15 1861.14 1475.94 1861.61 1477.00 1861.65 C 1493.57 1863.31 1510.11 1866.84 1525.41 1873.58 C 1548.18 1883.27 1567.97 1898.48 1586.83 1914.25 C 1600.06 1925.07 1613.05 1936.27 1627.51 1945.49 C 1695.27 1995.69 1762.87 2046.11 1830.63 2096.33 C 1836.97 2101.01 1843.15 2105.94 1849.77 2110.26 C 1863.73 2120.04 1876.33 2132.18 1885.08 2146.93 C 1891.21 2157.45 1894.68 2169.75 1894.01 2181.97 C 1892.66 2200.64 1881.57 2217.78 1866.39 2228.35 C 1851.14 2239.13 1832.43 2243.77 1814.08 2245.56 C 1801.26 2246.75 1788.36 2244.53 1776.09 2240.90 C 1771.34 2239.27 1766.47 2237.63 1762.45 2234.56 C 1716.67 2200.69 1671.00 2166.66 1625.21 2132.79 C 1621.88 2130.27 1618.45 2127.89 1615.30 2125.16 C 1615.44 2167.44 1615.32 2209.73 1615.36 2252.01 C 1615.46 2265.25 1614.89 2278.53 1616.40 2291.72 C 1624.16 2382.26 1631.67 2472.84 1639.49 2563.38 C 1644.81 2588.55 1647.21 2615.26 1639.27 2640.16 C 1631.95 2665.20 1610.51 2684.37 1586.03 2692.19 C 1573.40 2695.99 1560.35 2699.54 1547.04 2699.01 C 1535.08 2699.39 1523.34 2696.39 1511.96 2693.06 C 1494.86 2687.13 1478.26 2677.48 1467.55 2662.56 C 1457.20 2648.63 1454.09 2630.94 1453.01 2614.02 C 1452.12 2601.40 1451.73 2588.71 1449.59 2576.21 C 1447.03 2564.07 1446.86 2551.61 1445.55 2539.32 C 1441.13 2488.87 1436.89 2438.39 1432.37 2387.95 C 1420.24 2387.92 1408.13 2388.10 1396.01 2388.27 C 1384.98 2388.31 1373.96 2387.86 1362.94 2387.98 C 1358.10 2440.36 1354.00 2492.81 1349.39 2545.21 C 1348.25 2556.52 1348.08 2567.97 1345.74 2579.14 C 1341.84 2600.75 1344.26 2623.26 1337.46 2644.38 C 1331.31 2663.82 1315.19 2678.82 1296.76 2686.73 C 1276.09 2695.52 1253.13 2698.96 1230.80 2696.45 C 1212.08 2693.99 1193.13 2687.96 1178.80 2675.23 C 1170.00 2667.28 1162.98 2657.35 1158.68 2646.29 C 1148.99 2621.01 1149.83 2593.05 1155.76 2566.99 C 1158.74 2512.66 1164.09 2458.49 1168.46 2404.26 C 1170.46 2381.50 1172.34 2358.74 1174.33 2335.99 C 1180.10 2308.38 1180.04 2280.01 1180.00 2251.93 C 1179.98 2210.05 1180.03 2168.16 1179.98 2126.28 C 1169.64 2133.59 1158.64 2139.91 1148.30 2147.21 C 1127.48 2162.27 1108.66 2180.00 1087.01 2193.92 C 1073.86 2202.58 1062.47 2213.52 1050.13 2223.22 C 1040.86 2230.34 1030.88 2236.72 1019.87 2240.79 C 1002.39 2246.96 983.15 2249.68 964.97 2244.97 C 949.76 2241.91 935.83 2234.07 924.50 2223.60 C 914.32 2213.75 905.95 2201.52 902.52 2187.63 C 900.05 2178.94 900.52 2169.63 903.04 2161.02 C 906.59 2145.38 917.34 2132.57 929.52 2122.67 C 939.59 2114.44 950.51 2107.33 961.49 2100.39 C 975.56 2091.46 988.10 2080.46 1001.15 2070.17 C 1009.72 2062.93 1019.44 2057.25 1028.12 2050.17 C 1038.83 2041.52 1049.71 2033.09 1060.47 2024.51 C 1090.19 2002.57 1119.96 1980.69 1149.65 1958.70 C 1167.29 1946.00 1184.37 1932.52 1202.43 1920.43 C 1217.30 1909.31 1231.28 1897.01 1246.79 1886.76 C 1258.57 1878.81 1271.43 1872.40 1285.01 1868.16 C 1295.50 1864.62 1306.50 1862.94 1317.38 1861.30 C 1309.31 1859.64 1301.03 1859.25 1292.90 1857.91 C 1214.13 1846.51 1136.81 1822.46 1067.05 1783.83 C 1000.03 1746.82 939.52 1696.86 894.22 1634.88 C 877.88 1612.72 863.66 1589.00 851.75 1564.19 C 846.86 1559.28 837.82 1559.37 834.43 1552.67 C 829.15 1539.00 825.79 1524.67 822.53 1510.41 C 813.25 1508.86 803.92 1506.37 796.05 1501.03 C 782.85 1492.66 772.62 1479.32 769.01 1464.02 C 765.20 1450.65 767.20 1436.64 766.70 1422.95 C 766.16 1411.79 767.76 1400.48 772.10 1390.15 C 779.97 1372.36 796.44 1358.55 815.49 1354.36 C 820.97 1306.02 835.03 1258.59 857.35 1215.34 C 891.18 1149.50 941.92 1093.17 1001.19 1049.21 C 1070.30 997.79 1150.92 962.67 1234.80 943.69 C 1277.60 933.68 1321.37 928.21 1365.23 926.19 C 1367.49 913.57 1366.30 900.69 1367.08 887.97 C 1367.90 883.06 1367.13 878.07 1367.78 873.16 C 1369.87 853.53 1375.83 833.83 1387.89 817.94 C 1396.60 805.52 1407.64 795.05 1417.94 783.98 C 1412.67 776.00 1410.24 766.44 1409.57 757.00 C 1409.53 744.65 1413.18 731.92 1421.23 722.36 M 1453.38 721.57 C 1449.34 722.76 1445.49 724.59 1442.08 727.05 C 1429.54 735.73 1424.07 753.15 1429.61 767.39 C 1432.93 776.25 1439.90 783.66 1448.59 787.44 C 1455.19 790.63 1462.85 790.83 1469.97 789.61 C 1481.15 787.03 1490.87 778.72 1495.03 768.01 C 1497.78 761.78 1497.69 754.70 1496.73 748.09 C 1494.23 737.40 1486.70 727.88 1476.58 723.47 C 1469.43 719.99 1461.01 719.77 1453.38 721.57 M 1268.93 955.13 C 1223.42 963.22 1178.83 976.43 1136.13 994.13 C 1066.97 1022.91 1002.43 1064.14 950.26 1118.16 C 895.54 1173.86 855.19 1244.45 838.96 1321.10 C 948.74 1269.91 1064.49 1230.62 1183.90 1209.40 C 1282.08 1191.70 1382.62 1187.86 1481.95 1196.63 C 1570.37 1204.52 1657.61 1222.77 1742.91 1247.02 C 1811.61 1266.58 1879.08 1290.27 1945.51 1316.47 C 1931.97 1255.10 1902.53 1197.69 1862.95 1149.06 C 1839.01 1119.46 1811.29 1093.05 1781.18 1069.78 C 1717.58 1020.83 1643.40 986.44 1565.97 965.95 C 1520.57 954.03 1473.86 947.45 1427.04 944.99 C 1408.69 944.55 1390.34 943.38 1372.00 944.61 C 1337.45 945.45 1302.98 949.12 1268.93 955.13 M 1063.98 1243.89 C 984.86 1264.99 907.90 1293.88 833.93 1328.94 C 831.68 1329.61 831.68 1332.14 831.23 1334.04 C 826.68 1358.71 825.46 1383.87 825.79 1408.92 C 826.19 1433.06 828.16 1457.17 831.90 1481.03 C 834.76 1498.31 838.12 1515.63 843.75 1532.24 C 849.43 1535.60 855.79 1537.72 861.75 1540.56 C 862.54 1543.82 864.14 1546.79 865.44 1549.88 C 938.59 1584.39 1014.39 1613.37 1092.02 1636.09 C 1182.55 1662.58 1275.91 1679.40 1370.01 1685.96 C 1452.03 1690.78 1534.87 1687.30 1615.59 1671.33 C 1723.67 1649.91 1826.39 1605.71 1919.83 1547.84 C 1921.94 1546.74 1922.51 1544.25 1923.45 1542.28 L 1922.19 1542.96 C 1927.89 1539.41 1933.95 1536.42 1939.47 1532.59 C 1943.69 1521.75 1946.32 1510.30 1949.18 1499.02 C 1957.56 1463.26 1962.23 1426.66 1963.58 1389.97 C 1963.97 1370.79 1964.28 1351.38 1960.51 1332.49 C 1854.29 1288.68 1744.57 1252.77 1631.93 1229.63 C 1538.32 1210.26 1442.58 1200.64 1346.97 1202.94 C 1251.44 1205.10 1156.27 1219.22 1063.98 1243.89 M 787.45 1400.04 C 784.41 1406.94 784.66 1414.63 784.70 1422.02 C 784.75 1431.32 784.62 1440.62 784.76 1449.92 C 784.86 1460.22 789.44 1470.10 796.08 1477.82 C 802.05 1484.68 810.33 1489.07 818.89 1491.83 C 815.23 1467.07 813.13 1442.05 813.48 1417.01 C 813.14 1402.47 812.72 1387.90 814.06 1373.41 C 801.93 1377.96 791.95 1387.88 787.45 1400.04 M 1971.97 1374.57 C 1971.78 1385.73 1972.81 1396.87 1972.13 1408.03 C 1972.05 1435.77 1970.16 1463.48 1966.68 1491.00 C 1982.42 1486.12 1994.83 1472.30 1997.87 1456.11 C 1999.03 1448.13 1998.34 1440.03 1998.53 1432.00 C 1998.32 1423.63 1999.08 1415.20 1997.79 1406.90 C 1994.94 1392.83 1985.08 1380.46 1971.97 1374.57 M 878.57 1575.91 C 897.48 1611.27 922.06 1643.41 949.78 1672.29 C 1007.70 1731.90 1080.26 1776.30 1157.96 1805.20 C 1230.39 1832.38 1307.77 1845.76 1385.04 1846.36 C 1439.73 1847.11 1494.49 1841.42 1547.84 1829.29 C 1601.09 1816.81 1652.91 1797.88 1701.24 1772.23 C 1742.19 1750.60 1780.55 1723.97 1814.77 1692.76 C 1822.59 1684.96 1831.20 1677.94 1838.39 1669.50 C 1864.88 1641.77 1888.19 1610.81 1906.43 1577.02 C 1870.30 1597.99 1833.14 1617.26 1794.71 1633.68 C 1738.88 1657.88 1680.49 1676.14 1620.87 1688.27 C 1541.78 1704.57 1460.55 1708.41 1380.03 1704.61 C 1293.61 1699.36 1207.82 1685.08 1124.06 1663.24 C 1039.84 1641.52 957.78 1611.77 878.57 1575.91 M 1256.42 1902.35 C 1245.52 1909.68 1235.37 1918.04 1225.11 1926.23 C 1213.83 1935.38 1201.43 1942.97 1189.97 1951.87 C 1152.87 1979.09 1115.92 2006.50 1078.86 2033.77 C 1066.54 2042.69 1054.98 2052.60 1042.88 2061.81 C 1037.81 2065.79 1032.94 2070.06 1027.51 2073.56 C 1013.85 2082.56 1001.90 2093.80 988.74 2103.45 C 991.76 2108.90 995.36 2114.00 998.80 2119.21 C 1016.52 2145.24 1036.48 2169.83 1059.08 2191.80 C 1065.18 2186.91 1071.33 2182.06 1077.93 2177.85 C 1100.01 2163.70 1118.89 2145.24 1140.39 2130.29 C 1153.93 2120.92 1168.86 2113.32 1180.69 2101.67 C 1183.67 2098.27 1188.94 2097.01 1192.99 2099.24 C 1196.70 2100.85 1198.03 2105.23 1198.01 2108.98 C 1197.99 2136.34 1198.00 2163.70 1198.00 2191.06 C 1197.84 2222.70 1198.31 2254.33 1198.00 2285.97 C 1197.83 2299.09 1196.74 2312.21 1194.77 2325.19 C 1191.36 2341.55 1191.20 2358.32 1189.41 2374.89 C 1185.59 2419.93 1181.81 2464.98 1177.98 2510.02 C 1176.71 2523.63 1176.33 2537.31 1175.10 2550.93 C 1174.84 2558.20 1174.64 2565.57 1172.98 2572.70 C 1220.70 2589.55 1273.57 2592.56 1322.59 2579.52 C 1324.18 2578.90 1326.17 2578.86 1327.47 2577.69 C 1329.76 2568.60 1329.42 2559.12 1330.60 2549.88 C 1335.13 2495.39 1339.96 2440.93 1344.40 2386.44 C 1331.21 2385.19 1318.01 2384.04 1304.89 2382.16 C 1301.83 2381.85 1298.68 2380.68 1297.09 2377.89 C 1292.82 2371.92 1297.31 2362.02 1305.08 2362.60 C 1317.37 2364.01 1329.66 2365.70 1342.02 2366.66 C 1341.92 2230.09 1342.14 2093.51 1342.22 1956.94 C 1342.43 1953.13 1341.33 1948.46 1344.46 1945.55 C 1347.22 1943.10 1351.08 1944.48 1354.11 1945.61 C 1377.35 1954.07 1403.14 1955.14 1427.05 1948.82 C 1432.46 1947.55 1437.62 1945.44 1442.96 1943.95 C 1446.16 1942.95 1450.15 1944.61 1451.00 1948.03 C 1451.64 1951.31 1451.26 1954.68 1451.38 1958.02 C 1452.00 2094.05 1451.92 2230.09 1452.01 2366.12 C 1464.37 2364.85 1476.70 2363.23 1488.95 2361.15 C 1492.16 2360.53 1495.92 2361.31 1498.07 2363.97 C 1501.86 2368.29 1501.11 2376.10 1496.02 2379.13 C 1494.19 2380.09 1492.10 2380.38 1490.11 2380.80 C 1477.08 2382.90 1463.96 2384.43 1450.83 2385.76 C 1451.02 2392.48 1451.98 2399.15 1452.41 2405.86 C 1457.09 2459.61 1461.74 2513.37 1466.38 2567.12 C 1467.38 2572.33 1468.19 2577.58 1469.16 2582.82 C 1519.63 2596.40 1574.25 2593.21 1623.18 2575.06 C 1619.57 2557.56 1619.41 2539.61 1617.45 2521.90 C 1610.69 2441.24 1603.80 2360.60 1597.00 2279.95 C 1596.98 2223.29 1597.00 2166.64 1596.99 2109.98 C 1597.03 2106.81 1597.71 2103.36 1600.13 2101.12 C 1603.10 2097.85 1608.43 2097.85 1612.00 2100.12 C 1653.86 2131.04 1695.53 2162.25 1737.47 2193.06 C 1765.00 2166.30 1788.97 2135.96 1809.27 2103.40 C 1748.00 2057.81 1686.65 2012.34 1625.39 1966.73 C 1616.69 1959.91 1607.07 1954.37 1598.52 1947.36 C 1587.73 1939.24 1577.65 1930.25 1567.13 1921.81 C 1548.81 1906.76 1528.68 1893.39 1506.05 1885.82 C 1496.65 1882.37 1486.65 1881.30 1476.81 1879.89 C 1477.35 1884.59 1477.96 1889.28 1478.53 1894.00 C 1479.03 1898.62 1480.48 1903.67 1477.98 1908.00 C 1475.25 1912.85 1469.17 1913.27 1464.64 1915.55 C 1450.71 1921.75 1437.01 1928.89 1421.92 1931.89 C 1403.54 1936.28 1384.14 1935.96 1365.91 1931.04 C 1349.72 1927.51 1335.52 1918.62 1320.13 1912.89 C 1315.52 1910.99 1312.00 1906.17 1312.64 1901.07 C 1313.45 1894.09 1314.34 1887.13 1315.22 1880.17 C 1294.09 1882.26 1274.06 1890.80 1256.42 1902.35 Z" />
</g>
<g id="#faeed4ff">
<path fill="#faeed4" opacity="1.00" d=" M 3042.45 716.56 C 3050.23 715.04 3058.70 715.39 3065.82 719.22 C 3078.10 724.99 3086.53 738.41 3085.70 752.05 C 3085.64 770.51 3068.43 786.88 3049.97 785.90 C 3031.56 786.18 3015.02 769.39 3015.55 751.00 C 3014.97 735.04 3027.16 720.29 3042.45 716.56 Z" />
<path fill="#faeed4" opacity="1.00" d=" M 1453.38 721.57 C 1461.01 719.77 1469.43 719.99 1476.58 723.47 C 1486.70 727.88 1494.23 737.40 1496.73 748.09 C 1497.69 754.70 1497.78 761.78 1495.03 768.01 C 1490.87 778.72 1481.15 787.03 1469.97 789.61 C 1462.85 790.83 1455.19 790.63 1448.59 787.44 C 1439.90 783.66 1432.93 776.25 1429.61 767.39 C 1424.07 753.15 1429.54 735.73 1442.08 727.05 C 1445.49 724.59 1449.34 722.76 1453.38 721.57 Z" />
<path fill="#faeed4" opacity="1.00" d=" M 2745.70 981.56 C 2825.11 951.87 2910.34 938.86 2994.96 940.64 C 3035.54 941.27 3076.03 945.65 3115.88 953.35 C 3158.86 961.78 3200.94 974.73 3241.32 991.69 C 3320.68 1025.13 3393.94 1075.26 3449.23 1141.69 C 3488.75 1188.86 3518.37 1244.60 3533.55 1304.34 C 3544.92 1350.39 3547.03 1398.58 3540.66 1445.53 C 3534.80 1488.53 3520.47 1530.12 3500.54 1568.57 C 3482.94 1602.43 3460.45 1633.63 3434.77 1661.79 C 3427.23 1669.24 3420.61 1677.60 3412.45 1684.42 C 3357.03 1737.74 3289.47 1777.62 3217.63 1804.57 C 3173.85 1821.01 3128.28 1832.68 3081.97 1839.23 C 3036.94 1845.82 2991.32 1847.56 2945.88 1845.63 C 2896.69 1843.05 2847.60 1835.92 2800.07 1822.80 C 2723.37 1801.67 2650.01 1766.85 2587.25 1717.71 C 2580.07 1711.92 2572.79 1706.25 2566.07 1699.94 C 2611.72 1695.02 2656.77 1685.56 2701.11 1673.77 C 2723.78 1667.59 2746.39 1661.19 2768.71 1653.82 C 2852.13 1625.74 2935.74 1597.89 3020.96 1575.67 C 3023.62 1574.91 3026.50 1574.46 3028.80 1572.75 C 3054.76 1552.73 3081.19 1532.69 3102.32 1507.39 C 3118.41 1506.69 3134.25 1500.88 3146.83 1490.79 C 3161.36 1479.31 3171.49 1462.39 3174.62 1444.13 C 3177.63 1427.08 3174.71 1409.02 3166.28 1393.88 C 3157.55 1377.94 3142.94 1365.33 3125.90 1359.04 C 3107.65 1352.18 3086.82 1352.75 3068.91 1360.42 C 2989.43 1328.64 2909.52 1297.78 2828.33 1270.59 C 2747.09 1243.39 2664.57 1219.27 2580.14 1204.21 C 2545.73 1198.19 2511.04 1193.70 2476.18 1191.45 C 2496.30 1158.85 2520.98 1129.21 2548.65 1102.76 C 2604.56 1048.74 2673.03 1008.61 2745.70 981.56 Z" />
<path fill="#faeed4" opacity="1.00" d=" M 1268.93 955.13 C 1302.98 949.12 1337.45 945.45 1372.00 944.61 C 1390.34 943.38 1408.69 944.55 1427.04 944.99 C 1473.86 947.45 1520.57 954.03 1565.97 965.95 C 1643.40 986.44 1717.58 1020.83 1781.18 1069.78 C 1811.29 1093.05 1839.01 1119.46 1862.95 1149.06 C 1902.53 1197.69 1931.97 1255.10 1945.51 1316.47 C 1879.08 1290.27 1811.61 1266.58 1742.91 1247.02 C 1657.61 1222.77 1570.37 1204.52 1481.95 1196.63 C 1382.62 1187.86 1282.08 1191.70 1183.90 1209.40 C 1064.49 1230.62 948.74 1269.91 838.96 1321.10 C 855.19 1244.45 895.54 1173.86 950.26 1118.16 C 1002.43 1064.14 1066.97 1022.91 1136.13 994.13 C 1178.83 976.43 1223.42 963.22 1268.93 955.13 Z" />
<path fill="#faeed4" opacity="1.00" d=" M 3090.49 1372.74 C 3100.10 1371.91 3110.26 1371.79 3119.30 1375.70 C 3127.14 1378.90 3134.81 1383.04 3140.53 1389.44 C 3146.55 1394.82 3150.62 1401.93 3153.74 1409.31 C 3158.56 1419.82 3158.37 1431.86 3156.77 1443.09 C 3152.90 1459.42 3142.31 1474.37 3127.32 1482.25 C 3120.95 1485.48 3114.23 1488.54 3107.00 1489.01 C 3096.87 1489.87 3086.21 1489.61 3076.90 1485.06 C 3059.19 1477.92 3045.86 1461.59 3041.58 1443.09 C 3039.95 1431.70 3039.81 1419.48 3044.82 1408.86 C 3050.03 1395.87 3059.99 1384.78 3072.59 1378.62 C 3078.23 1375.85 3084.14 1373.25 3090.49 1372.74 Z" />
<path fill="#faeed4" opacity="1.00" d=" M 787.45 1400.04 C 791.95 1387.88 801.93 1377.96 814.06 1373.41 C 812.72 1387.90 813.14 1402.47 813.48 1417.01 C 813.13 1442.05 815.23 1467.07 818.89 1491.83 C 810.33 1489.07 802.05 1484.68 796.08 1477.82 C 789.44 1470.10 784.86 1460.22 784.76 1449.92 C 784.62 1440.62 784.75 1431.32 784.70 1422.02 C 784.66 1414.63 784.41 1406.94 787.45 1400.04 Z" />
<path fill="#faeed4" opacity="1.00" d=" M 1971.97 1374.57 C 1985.08 1380.46 1994.94 1392.83 1997.79 1406.90 C 1999.08 1415.20 1998.32 1423.63 1998.53 1432.00 C 1998.34 1440.03 1999.03 1448.13 1997.87 1456.11 C 1994.83 1472.30 1982.42 1486.12 1966.68 1491.00 C 1970.16 1463.48 1972.05 1435.77 1972.13 1408.03 C 1972.81 1396.87 1971.78 1385.73 1971.97 1374.57 Z" />
<path fill="#faeed4" opacity="1.00" d=" M 861.75 1540.56 C 942.77 1576.28 1026.45 1606.03 1112.00 1628.89 C 1201.27 1652.68 1292.67 1668.88 1384.87 1675.32 C 1452.67 1679.24 1520.98 1677.06 1588.12 1666.42 C 1654.63 1656.07 1719.75 1637.42 1782.08 1612.10 C 1830.41 1592.55 1877.08 1569.05 1922.19 1542.96 L 1923.45 1542.28 C 1922.51 1544.25 1921.94 1546.74 1919.83 1547.84 C 1826.39 1605.71 1723.67 1649.91 1615.59 1671.33 C 1534.87 1687.30 1452.03 1690.78 1370.01 1685.96 C 1275.91 1679.40 1182.55 1662.58 1092.02 1636.09 C 1014.39 1613.37 938.59 1584.39 865.44 1549.88 C 864.14 1546.79 862.54 1543.82 861.75 1540.56 Z" />
<path fill="#faeed4" opacity="1.00" d=" M 2896.47 1591.74 C 2938.14 1578.63 2980.16 1566.64 3022.30 1555.15 C 3018.24 1558.50 3012.93 1559.24 3008.01 1560.54 C 2964.36 1572.21 2921.00 1584.96 2877.97 1598.74 C 2838.41 1611.36 2799.09 1624.72 2759.60 1637.53 C 2717.73 1651.14 2675.29 1663.15 2632.06 1671.61 C 2609.78 1676.04 2587.27 1679.10 2564.75 1681.96 C 2558.94 1676.13 2553.26 1670.19 2547.55 1664.27 C 2547.20 1664.27 2546.50 1664.26 2546.15 1664.26 C 2546.35 1663.81 2546.76 1662.91 2546.96 1662.45 C 2550.14 1666.21 2553.59 1669.75 2556.95 1673.36 C 2586.44 1671.17 2615.83 1667.50 2644.95 1662.29 C 2687.27 1654.54 2729.04 1643.88 2770.22 1631.43 C 2812.45 1618.68 2854.34 1604.82 2896.47 1591.74 Z" />
<path fill="#faeed4" opacity="1.00" d=" M 878.57 1575.91 C 957.78 1611.77 1039.84 1641.52 1124.06 1663.24 C 1207.82 1685.08 1293.61 1699.36 1380.03 1704.61 C 1460.55 1708.41 1541.78 1704.57 1620.87 1688.27 C 1680.49 1676.14 1738.88 1657.88 1794.71 1633.68 C 1833.14 1617.26 1870.30 1597.99 1906.43 1577.02 C 1888.19 1610.81 1864.88 1641.77 1838.39 1669.50 C 1831.20 1677.94 1822.59 1684.96 1814.77 1692.76 C 1780.55 1723.97 1742.19 1750.60 1701.24 1772.23 C 1652.91 1797.88 1601.09 1816.81 1547.84 1829.29 C 1494.49 1841.42 1439.73 1847.11 1385.04 1846.36 C 1307.77 1845.76 1230.39 1832.38 1157.96 1805.20 C 1080.26 1776.30 1007.70 1731.90 949.78 1672.29 C 922.06 1643.41 897.48 1611.27 878.57 1575.91 Z" />
<path fill="#faeed4" opacity="1.00" d=" M 2941.41 1877.24 C 2950.86 1877.98 2959.93 1880.92 2969.16 1882.96 C 2977.94 1885.03 2986.71 1887.18 2995.47 1889.38 C 2998.53 1889.85 3001.89 1891.57 3004.88 1889.76 C 3013.62 1885.39 3023.01 1881.90 3032.88 1881.51 C 3052.05 1878.96 3071.87 1887.01 3084.56 1901.47 C 3090.77 1907.88 3094.11 1916.30 3097.81 1924.27 C 3131.35 1997.75 3164.90 2071.23 3198.45 2144.71 C 3200.65 2149.67 3203.07 2154.55 3205.14 2159.59 C 3198.29 2167.18 3189.24 2172.14 3181.08 2178.14 C 3173.23 2182.43 3164.98 2185.96 3156.98 2189.93 C 3147.04 2193.76 3136.92 2197.13 3126.91 2200.72 C 3115.99 2203.75 3104.91 2206.15 3093.98 2209.13 C 3067.93 2152.43 3042.13 2095.61 3016.17 2038.87 C 3014.39 2033.88 3009.74 2030.46 3004.94 2028.75 C 3001.60 2028.19 2996.62 2028.33 2995.22 2032.04 C 2995.10 2036.39 2996.63 2040.58 2998.59 2044.42 C 3029.94 2113.05 3061.27 2181.69 3092.61 2250.33 C 3096.15 2258.03 3100.79 2265.28 3106.71 2271.38 C 3110.39 2274.46 3109.67 2279.79 3110.13 2284.09 C 3112.07 2308.65 3108.04 2334.94 3092.91 2355.06 C 3090.04 2359.28 3084.37 2362.23 3084.81 2368.06 C 3085.08 2379.07 3086.47 2390.01 3087.06 2401.01 C 3091.60 2459.33 3095.07 2517.71 3097.07 2576.19 C 3088.14 2578.89 3079.45 2582.75 3070.07 2583.53 C 3057.77 2585.56 3045.33 2586.32 3032.92 2587.09 C 3017.62 2586.98 3002.27 2587.76 2987.04 2586.12 C 2974.29 2586.13 2961.94 2582.70 2949.45 2580.66 C 2949.98 2507.79 2933.80 2436.08 2913.95 2366.36 C 2919.21 2364.30 2924.58 2362.38 2929.44 2359.43 C 2916.75 2317.14 2904.22 2274.78 2893.78 2231.88 C 2882.84 2186.30 2874.12 2139.95 2872.21 2093.02 C 2870.62 2053.01 2874.14 2012.11 2888.41 1974.42 C 2898.79 1946.83 2915.36 1921.47 2937.16 1901.55 C 2936.19 1899.68 2934.82 1897.92 2932.71 1897.43 C 2925.65 1895.45 2918.41 1897.86 2911.70 1900.02 C 2920.99 1891.66 2930.88 1883.98 2941.41 1877.24 Z" />
<path fill="#faeed4" opacity="1.00" d=" M 1256.42 1902.35 C 1274.06 1890.80 1294.09 1882.26 1315.22 1880.17 C 1314.34 1887.13 1313.45 1894.09 1312.64 1901.07 C 1312.00 1906.17 1315.52 1910.99 1320.13 1912.89 C 1335.52 1918.62 1349.72 1927.51 1365.91 1931.04 C 1384.14 1935.96 1403.54 1936.28 1421.92 1931.89 C 1437.01 1928.89 1450.71 1921.75 1464.64 1915.55 C 1469.17 1913.27 1475.25 1912.85 1477.98 1908.00 C 1480.48 1903.67 1479.03 1898.62 1478.53 1894.00 C 1477.96 1889.28 1477.35 1884.59 1476.81 1879.89 C 1486.65 1881.30 1496.65 1882.37 1506.05 1885.82 C 1528.68 1893.39 1548.81 1906.76 1567.13 1921.81 C 1577.65 1930.25 1587.73 1939.24 1598.52 1947.36 C 1607.07 1954.37 1616.69 1959.91 1625.39 1966.73 C 1686.65 2012.34 1748.00 2057.81 1809.27 2103.40 C 1788.97 2135.96 1765.00 2166.30 1737.47 2193.06 C 1695.53 2162.25 1653.86 2131.04 1612.00 2100.12 C 1608.43 2097.85 1603.10 2097.85 1600.13 2101.12 C 1597.71 2103.36 1597.03 2106.81 1596.99 2109.98 C 1597.00 2166.64 1596.98 2223.29 1597.00 2279.95 C 1603.80 2360.60 1610.69 2441.24 1617.45 2521.90 C 1619.41 2539.61 1619.57 2557.56 1623.18 2575.06 C 1574.25 2593.21 1519.63 2596.40 1469.16 2582.82 C 1468.19 2577.58 1467.38 2572.33 1466.38 2567.12 C 1461.74 2513.37 1457.09 2459.61 1452.41 2405.86 C 1451.98 2399.15 1451.02 2392.48 1450.83 2385.76 C 1463.96 2384.43 1477.08 2382.90 1490.11 2380.80 C 1492.10 2380.38 1494.19 2380.09 1496.02 2379.13 C 1501.11 2376.10 1501.86 2368.29 1498.07 2363.97 C 1495.92 2361.31 1492.16 2360.53 1488.95 2361.15 C 1476.70 2363.23 1464.37 2364.85 1452.01 2366.12 C 1451.92 2230.09 1452.00 2094.05 1451.38 1958.02 C 1451.26 1954.68 1451.64 1951.31 1451.00 1948.03 C 1450.15 1944.61 1446.16 1942.95 1442.96 1943.95 C 1437.62 1945.44 1432.46 1947.55 1427.05 1948.82 C 1403.14 1955.14 1377.35 1954.07 1354.11 1945.61 C 1351.08 1944.48 1347.22 1943.10 1344.46 1945.55 C 1341.33 1948.46 1342.43 1953.13 1342.22 1956.94 C 1342.14 2093.51 1341.92 2230.09 1342.02 2366.66 C 1329.66 2365.70 1317.37 2364.01 1305.08 2362.60 C 1297.31 2362.02 1292.82 2371.92 1297.09 2377.89 C 1298.68 2380.68 1301.83 2381.85 1304.89 2382.16 C 1318.01 2384.04 1331.21 2385.19 1344.40 2386.44 C 1339.96 2440.93 1335.13 2495.39 1330.60 2549.88 C 1329.42 2559.12 1329.76 2568.60 1327.47 2577.69 C 1326.17 2578.86 1324.18 2578.90 1322.59 2579.52 C 1273.57 2592.56 1220.70 2589.55 1172.98 2572.70 C 1174.64 2565.57 1174.84 2558.20 1175.10 2550.93 C 1176.33 2537.31 1176.71 2523.63 1177.98 2510.02 C 1181.81 2464.98 1185.59 2419.93 1189.41 2374.89 C 1191.20 2358.32 1191.36 2341.55 1194.77 2325.19 C 1196.74 2312.21 1197.83 2299.09 1198.00 2285.97 C 1198.31 2254.33 1197.84 2222.70 1198.00 2191.06 C 1198.00 2163.70 1197.99 2136.34 1198.01 2108.98 C 1198.03 2105.23 1196.70 2100.85 1192.99 2099.24 C 1188.94 2097.01 1183.67 2098.27 1180.69 2101.67 C 1168.86 2113.32 1153.93 2120.92 1140.39 2130.29 C 1118.89 2145.24 1100.01 2163.70 1077.93 2177.85 C 1071.33 2182.06 1065.18 2186.91 1059.08 2191.80 C 1036.48 2169.83 1016.52 2145.24 998.80 2119.21 C 995.36 2114.00 991.76 2108.90 988.74 2103.45 C 1001.90 2093.80 1013.85 2082.56 1027.51 2073.56 C 1032.94 2070.06 1037.81 2065.79 1042.88 2061.81 C 1054.98 2052.60 1066.54 2042.69 1078.86 2033.77 C 1115.92 2006.50 1152.87 1979.09 1189.97 1951.87 C 1201.43 1942.97 1213.83 1935.38 1225.11 1926.23 C 1235.37 1918.04 1245.52 1909.68 1256.42 1902.35 Z" />
</g>
<g id="#212121ff">
<path fill="#212121" opacity="1.00" d=" M 1063.98 1243.89 C 1156.27 1219.22 1251.44 1205.10 1346.97 1202.94 C 1442.58 1200.64 1538.32 1210.26 1631.93 1229.63 C 1744.57 1252.77 1854.29 1288.68 1960.51 1332.49 C 1964.28 1351.38 1963.97 1370.79 1963.58 1389.97 C 1962.23 1426.66 1957.56 1463.26 1949.18 1499.02 C 1946.32 1510.30 1943.69 1521.75 1939.47 1532.59 C 1933.95 1536.42 1927.89 1539.41 1922.19 1542.96 C 1877.08 1569.05 1830.41 1592.55 1782.08 1612.10 C 1719.75 1637.42 1654.63 1656.07 1588.12 1666.42 C 1520.98 1677.06 1452.67 1679.24 1384.87 1675.32 C 1292.67 1668.88 1201.27 1652.68 1112.00 1628.89 C 1026.45 1606.03 942.77 1576.28 861.75 1540.56 C 855.79 1537.72 849.43 1535.60 843.75 1532.24 C 838.12 1515.63 834.76 1498.31 831.90 1481.03 C 828.16 1457.17 826.19 1433.06 825.79 1408.92 C 825.46 1383.87 826.68 1358.71 831.23 1334.04 C 831.68 1332.14 831.68 1329.61 833.93 1328.94 C 907.90 1293.88 984.86 1264.99 1063.98 1243.89 M 1471.11 1336.99 C 1470.83 1342.35 1471.03 1347.73 1471.00 1353.11 C 1470.70 1354.71 1471.82 1355.89 1472.78 1357.02 C 1478.53 1356.94 1484.29 1357.07 1490.05 1356.98 C 1491.67 1357.09 1493.43 1355.81 1493.21 1354.05 C 1493.34 1348.70 1493.30 1343.35 1493.23 1338.01 C 1493.38 1336.55 1492.47 1334.90 1490.91 1334.86 C 1486.27 1334.46 1481.60 1334.80 1476.96 1334.67 C 1474.85 1334.74 1471.71 1334.29 1471.11 1336.99 M 1495.28 1335.41 C 1495.05 1335.82 1494.59 1336.64 1494.35 1337.06 C 1493.98 1342.35 1494.22 1347.68 1494.21 1352.99 C 1494.01 1354.69 1494.98 1356.92 1496.96 1356.94 C 1502.32 1357.08 1507.69 1356.99 1513.06 1356.99 C 1514.41 1357.06 1516.14 1356.40 1516.37 1354.87 C 1516.93 1350.27 1516.44 1345.62 1516.63 1341.01 C 1516.50 1338.94 1517.05 1336.16 1514.89 1334.99 C 1510.27 1334.33 1505.59 1334.86 1500.96 1334.67 C 1499.06 1334.79 1496.95 1334.35 1495.28 1335.41 M 1519.12 1335.01 C 1517.30 1336.00 1517.52 1338.23 1517.50 1340.00 C 1517.59 1344.68 1517.39 1349.36 1517.60 1354.04 C 1517.37 1355.90 1519.23 1357.16 1520.95 1356.99 C 1526.62 1356.93 1532.31 1357.22 1537.97 1356.83 C 1540.47 1355.47 1539.75 1352.33 1539.90 1349.99 C 1539.75 1345.69 1540.10 1341.37 1539.72 1337.09 C 1539.22 1334.33 1536.04 1334.73 1533.99 1334.67 C 1529.03 1334.87 1524.03 1334.30 1519.12 1335.01 M 1540.84 1337.94 C 1540.75 1343.30 1540.73 1348.67 1540.85 1354.04 C 1540.63 1355.41 1541.99 1356.18 1542.78 1357.09 C 1548.87 1356.90 1554.97 1357.04 1561.07 1357.00 C 1561.71 1356.34 1562.35 1355.69 1563.02 1355.05 C 1562.94 1349.34 1563.07 1343.63 1562.99 1337.92 C 1563.15 1336.21 1561.75 1334.56 1559.99 1334.78 C 1554.65 1334.60 1549.31 1334.65 1543.98 1334.76 C 1542.16 1334.57 1540.51 1336.08 1540.84 1337.94 M 1449.31 1358.36 C 1449.04 1358.59 1448.50 1359.03 1448.23 1359.26 C 1447.26 1364.09 1448.03 1369.12 1447.77 1374.03 C 1447.90 1376.10 1447.19 1379.67 1450.08 1380.07 C 1455.69 1380.39 1461.33 1380.24 1466.96 1380.16 C 1468.65 1380.32 1470.22 1378.79 1469.99 1377.08 C 1470.01 1371.66 1470.03 1366.24 1469.99 1360.84 C 1470.10 1358.81 1467.85 1357.60 1466.07 1357.98 C 1460.50 1358.24 1454.77 1357.48 1449.31 1358.36 M 1473.00 1357.97 C 1472.32 1358.59 1471.65 1359.23 1471.01 1359.89 C 1471.03 1365.60 1470.92 1371.32 1471.02 1377.04 C 1470.91 1378.70 1472.30 1380.32 1474.06 1380.15 C 1479.34 1380.31 1484.63 1380.25 1489.92 1380.18 C 1491.77 1380.43 1493.50 1378.91 1493.22 1377.00 C 1493.31 1371.66 1493.33 1366.31 1493.21 1360.99 C 1493.46 1359.18 1491.74 1357.81 1490.07 1358.01 C 1484.37 1357.94 1478.68 1358.04 1473.00 1357.97 M 1496.14 1358.11 C 1492.64 1360.51 1494.74 1365.50 1494.19 1369.05 C 1494.75 1372.57 1492.63 1377.58 1496.06 1380.00 C 1501.03 1380.52 1506.06 1380.08 1511.06 1380.25 C 1513.03 1380.21 1515.93 1380.51 1516.42 1377.94 C 1516.79 1372.34 1516.62 1366.71 1516.53 1361.11 C 1516.65 1359.17 1514.89 1357.64 1513.03 1358.00 C 1507.40 1358.05 1501.76 1357.83 1496.14 1358.11 M 1517.53 1361.98 C 1517.58 1367.29 1517.35 1372.61 1517.65 1377.92 C 1518.10 1380.53 1521.05 1380.20 1523.05 1380.25 C 1528.02 1380.08 1533.02 1380.53 1537.98 1379.99 C 1539.93 1379.17 1539.91 1376.78 1539.90 1375.01 C 1539.81 1370.33 1540.01 1365.66 1539.80 1361.00 C 1539.82 1359.71 1538.66 1358.91 1538.08 1357.93 C 1532.03 1358.13 1525.96 1357.83 1519.92 1358.07 C 1517.96 1358.15 1517.37 1360.34 1517.53 1361.98 M 1540.85 1360.98 C 1540.73 1366.33 1540.75 1371.69 1540.84 1377.05 C 1540.52 1378.85 1542.17 1380.33 1543.95 1380.17 C 1549.29 1380.26 1554.66 1380.31 1560.01 1380.15 C 1561.73 1380.34 1563.13 1378.69 1562.99 1377.05 C 1563.05 1371.33 1562.95 1365.61 1563.02 1359.91 C 1562.37 1359.25 1561.74 1358.60 1561.12 1357.98 C 1555.39 1358.05 1549.67 1357.92 1543.95 1358.01 C 1542.27 1357.82 1540.57 1359.21 1540.85 1360.98 M 1565.92 1357.98 C 1565.26 1358.60 1564.62 1359.24 1563.99 1359.90 C 1564.04 1365.63 1563.92 1371.37 1564.02 1377.12 C 1563.87 1378.71 1565.31 1380.28 1566.97 1380.15 C 1572.30 1380.30 1577.64 1380.26 1582.98 1380.18 C 1584.82 1380.43 1586.44 1378.85 1586.21 1377.00 C 1586.32 1371.67 1586.34 1366.33 1586.20 1361.01 C 1586.40 1359.23 1584.76 1357.82 1583.08 1358.00 C 1577.36 1357.93 1571.64 1358.05 1565.92 1357.98 M 1162.25 1381.33 C 1160.71 1381.77 1160.01 1383.41 1160.15 1384.91 C 1160.09 1389.96 1160.07 1395.03 1160.16 1400.09 C 1160.08 1401.69 1161.13 1403.52 1162.97 1403.38 C 1168.31 1403.56 1173.67 1403.46 1179.01 1403.43 C 1180.98 1403.67 1182.70 1401.96 1182.44 1399.99 C 1182.33 1394.68 1182.54 1389.36 1182.39 1384.06 C 1182.54 1381.65 1179.87 1380.94 1177.99 1381.15 C 1172.74 1381.25 1167.47 1380.91 1162.25 1381.33 M 1185.35 1381.40 C 1183.20 1381.95 1183.47 1384.47 1183.38 1386.19 C 1183.18 1391.64 1182.32 1397.54 1184.31 1402.70 C 1188.57 1404.34 1193.44 1403.05 1197.95 1403.48 C 1200.52 1403.19 1205.07 1404.56 1205.62 1400.88 C 1205.90 1395.63 1205.71 1390.37 1205.73 1385.12 C 1205.90 1383.32 1204.94 1381.22 1202.92 1381.24 C 1197.07 1381.18 1191.16 1380.88 1185.35 1381.40 M 1208.38 1381.50 C 1206.50 1382.14 1206.71 1384.38 1206.65 1386.00 C 1206.73 1390.99 1206.46 1396.00 1206.79 1401.00 C 1206.77 1402.60 1208.53 1403.51 1209.99 1403.42 C 1215.30 1403.48 1220.63 1403.54 1225.95 1403.39 C 1227.79 1403.60 1229.04 1401.79 1228.98 1400.11 C 1229.05 1394.68 1229.17 1389.23 1228.91 1383.81 C 1228.65 1381.42 1225.95 1380.91 1224.00 1381.14 C 1218.80 1381.36 1213.50 1380.70 1208.38 1381.50 M 1229.96 1382.99 C 1230.03 1388.99 1229.85 1394.99 1230.02 1400.99 C 1229.96 1402.47 1231.58 1403.47 1232.97 1403.40 C 1238.29 1403.52 1243.62 1403.49 1248.95 1403.42 C 1250.33 1403.49 1252.13 1402.52 1252.05 1400.96 C 1252.21 1395.29 1252.19 1389.61 1252.07 1383.95 C 1252.18 1382.40 1250.53 1381.12 1249.10 1381.21 C 1243.37 1381.05 1237.65 1381.20 1231.93 1381.18 C 1231.26 1381.77 1230.60 1382.37 1229.96 1382.99 M 1255.24 1381.33 C 1253.67 1381.78 1252.93 1383.46 1253.08 1384.99 C 1253.00 1389.67 1253.06 1394.36 1253.05 1399.05 C 1253.02 1400.58 1253.22 1402.90 1255.13 1403.26 C 1260.05 1403.73 1265.02 1403.31 1269.96 1403.49 C 1271.69 1403.37 1274.15 1403.78 1275.07 1401.86 C 1275.82 1397.95 1275.22 1393.93 1275.42 1389.99 C 1275.28 1387.41 1275.82 1384.67 1274.82 1382.24 C 1273.25 1380.74 1270.92 1381.23 1268.99 1381.13 C 1264.40 1381.29 1259.80 1380.89 1255.24 1381.33 M 1278.41 1381.37 C 1278.07 1381.56 1277.39 1381.95 1277.05 1382.14 C 1275.49 1386.52 1276.70 1391.39 1276.31 1395.98 C 1276.48 1398.45 1275.41 1402.95 1278.98 1403.35 C 1284.30 1403.60 1289.64 1403.44 1294.97 1403.44 C 1296.61 1403.60 1298.46 1402.73 1298.56 1400.91 C 1298.86 1396.25 1298.57 1391.58 1298.70 1386.93 C 1298.58 1385.31 1298.92 1383.52 1297.92 1382.14 C 1296.31 1380.68 1293.97 1381.27 1292.03 1381.13 C 1287.49 1381.31 1282.92 1380.84 1278.41 1381.37 M 1496.40 1381.33 C 1493.86 1381.99 1494.21 1385.02 1494.16 1387.06 C 1494.28 1391.66 1493.97 1396.28 1494.32 1400.89 C 1494.41 1402.77 1496.32 1403.60 1498.02 1403.44 C 1503.01 1403.48 1508.01 1403.50 1513.01 1403.43 C 1514.69 1403.59 1516.52 1402.47 1516.49 1400.64 C 1516.73 1394.98 1516.99 1389.30 1516.43 1383.67 C 1516.33 1381.38 1513.70 1381.03 1511.95 1381.14 C 1506.76 1381.26 1501.55 1380.90 1496.40 1381.33 M 1447.89 1383.99 C 1447.73 1389.66 1447.68 1395.35 1447.92 1401.02 C 1447.86 1402.58 1449.68 1403.48 1451.08 1403.42 C 1456.35 1403.49 1461.65 1403.52 1466.94 1403.41 C 1468.29 1403.50 1469.95 1402.52 1469.95 1401.03 C 1470.11 1395.02 1469.92 1389.00 1470.01 1382.99 C 1469.52 1382.54 1468.54 1381.64 1468.04 1381.19 C 1462.39 1381.18 1456.73 1381.07 1451.09 1381.19 C 1449.51 1381.03 1447.74 1382.30 1447.89 1383.99 M 1471.64 1382.43 C 1470.18 1386.66 1471.38 1391.50 1470.98 1395.98 C 1471.19 1398.38 1470.02 1402.44 1473.20 1403.29 C 1478.45 1403.69 1483.75 1403.36 1489.03 1403.47 C 1490.64 1403.55 1493.12 1403.09 1493.15 1401.04 C 1493.46 1396.37 1493.17 1391.69 1493.30 1387.03 C 1493.21 1384.95 1493.72 1381.83 1491.00 1381.28 C 1486.32 1380.95 1481.62 1381.26 1476.95 1381.13 C 1475.12 1381.28 1472.84 1380.66 1471.64 1382.43 M 1518.19 1382.13 C 1517.16 1383.89 1517.61 1386.04 1517.52 1388.00 C 1517.69 1392.32 1517.31 1396.65 1517.64 1400.97 C 1517.74 1403.17 1520.23 1403.57 1522.01 1403.48 C 1526.97 1403.40 1531.95 1403.58 1536.92 1403.38 C 1538.76 1403.56 1539.90 1401.67 1539.83 1400.03 C 1539.96 1395.32 1539.84 1390.61 1539.89 1385.92 C 1539.89 1384.24 1539.78 1382.01 1537.89 1381.39 C 1533.63 1380.82 1529.32 1381.31 1525.05 1381.14 C 1522.75 1381.27 1520.14 1380.61 1518.19 1382.13 M 1541.42 1382.29 C 1540.04 1386.61 1541.15 1391.48 1540.78 1396.03 C 1541.06 1398.48 1539.72 1402.62 1543.11 1403.33 C 1548.71 1403.61 1554.34 1403.47 1559.96 1403.40 C 1561.81 1403.59 1563.24 1401.82 1562.99 1400.06 C 1562.95 1394.41 1563.14 1388.76 1562.90 1383.13 C 1561.83 1380.79 1559.11 1381.13 1557.03 1381.13 C 1552.36 1381.26 1547.69 1380.94 1543.05 1381.28 C 1542.64 1381.53 1541.83 1382.03 1541.42 1382.29 M 1564.58 1382.45 C 1563.21 1386.65 1564.37 1391.56 1563.98 1396.03 C 1564.23 1398.41 1562.97 1402.42 1566.12 1403.29 C 1571.40 1403.70 1576.71 1403.36 1582.02 1403.47 C 1583.68 1403.59 1586.16 1403.01 1586.15 1400.91 C 1586.46 1396.26 1586.17 1391.60 1586.29 1386.96 C 1586.21 1384.90 1586.62 1381.88 1584.01 1381.28 C 1579.33 1380.94 1574.63 1381.26 1569.96 1381.13 C 1568.11 1381.27 1565.80 1380.66 1564.58 1382.45 M 1161.22 1405.06 C 1159.69 1406.66 1160.20 1409.01 1160.10 1411.03 C 1160.22 1415.35 1159.93 1419.69 1160.23 1424.02 C 1160.29 1425.89 1162.20 1426.84 1163.90 1426.74 C 1169.24 1426.74 1174.60 1426.92 1179.95 1426.63 C 1181.79 1426.48 1182.56 1424.58 1182.45 1422.96 C 1182.45 1417.62 1182.62 1412.27 1182.35 1406.95 C 1181.74 1403.50 1177.45 1404.54 1174.96 1404.37 C 1170.40 1404.72 1165.61 1403.62 1161.22 1405.06 M 1185.02 1404.83 C 1183.37 1405.41 1183.41 1407.50 1183.38 1408.97 C 1183.46 1413.96 1183.22 1418.97 1183.50 1423.97 C 1183.46 1425.38 1184.66 1426.55 1186.06 1426.65 C 1190.36 1426.95 1194.68 1426.66 1199.00 1426.79 C 1200.96 1426.65 1203.23 1427.15 1204.93 1425.84 C 1206.05 1424.10 1205.66 1421.93 1205.77 1420.00 C 1205.62 1415.69 1205.94 1411.38 1205.63 1407.09 C 1205.30 1403.76 1201.33 1404.46 1199.00 1404.36 C 1194.35 1404.65 1189.56 1403.83 1185.02 1404.83 M 1208.15 1404.90 C 1207.85 1405.19 1207.26 1405.77 1206.97 1406.06 C 1206.30 1411.68 1206.77 1417.39 1206.69 1423.05 C 1206.41 1424.95 1207.91 1426.89 1209.93 1426.71 C 1215.26 1426.80 1220.61 1426.84 1225.95 1426.69 C 1227.83 1426.73 1229.14 1424.84 1229.00 1423.08 C 1229.12 1418.36 1229.04 1413.64 1229.04 1408.93 C 1229.06 1407.32 1228.79 1405.06 1226.91 1404.64 C 1222.63 1404.05 1218.29 1404.54 1214.00 1404.37 C 1212.05 1404.47 1209.95 1404.04 1208.15 1404.90 M 1231.17 1405.00 C 1229.37 1406.06 1230.10 1408.30 1229.95 1410.02 C 1230.09 1414.98 1229.79 1419.96 1230.08 1424.93 C 1230.84 1426.30 1232.40 1426.87 1233.93 1426.76 C 1238.93 1426.74 1243.94 1426.86 1248.95 1426.70 C 1250.87 1426.80 1252.49 1424.96 1252.12 1423.07 C 1252.06 1417.42 1252.37 1411.75 1251.94 1406.12 C 1250.45 1403.73 1247.30 1404.54 1244.97 1404.36 C 1240.39 1404.72 1235.56 1403.64 1231.17 1405.00 M 1254.15 1405.06 C 1252.63 1406.66 1253.14 1409.00 1253.03 1411.01 C 1253.15 1415.33 1252.86 1419.67 1253.16 1424.00 C 1253.23 1425.49 1254.58 1426.68 1256.08 1426.69 C 1260.70 1426.90 1265.34 1426.69 1269.97 1426.78 C 1271.74 1426.70 1274.24 1426.98 1275.12 1424.99 C 1275.77 1420.36 1275.22 1415.66 1275.43 1411.02 C 1275.32 1408.74 1276.01 1405.15 1272.99 1404.55 C 1268.67 1404.15 1264.32 1404.50 1260.00 1404.36 C 1258.03 1404.43 1255.93 1404.10 1254.15 1405.06 M 1277.21 1405.22 C 1275.33 1409.48 1276.76 1414.44 1276.31 1418.99 C 1276.57 1421.46 1275.34 1425.50 1278.45 1426.54 C 1283.29 1427.07 1288.20 1426.60 1293.08 1426.79 C 1294.98 1426.75 1297.91 1427.01 1298.48 1424.60 C 1298.95 1419.75 1298.53 1414.86 1298.70 1410.00 C 1298.59 1408.19 1299.02 1405.60 1296.94 1404.76 C 1293.04 1403.92 1288.99 1404.58 1285.05 1404.38 C 1282.44 1404.53 1279.55 1403.83 1277.21 1405.22 M 1449.11 1404.96 C 1447.31 1405.99 1447.95 1408.25 1447.78 1409.97 C 1447.86 1414.67 1447.63 1419.39 1447.90 1424.10 C 1447.78 1425.64 1449.61 1426.76 1451.02 1426.72 C 1456.32 1426.80 1461.64 1426.82 1466.95 1426.70 C 1468.34 1426.75 1470.08 1425.52 1469.98 1424.02 C 1469.95 1418.07 1470.17 1412.11 1469.87 1406.19 C 1468.21 1403.48 1464.60 1404.62 1462.01 1404.37 C 1457.73 1404.69 1453.23 1403.70 1449.11 1404.96 M 1472.13 1405.02 C 1470.69 1406.28 1471.02 1408.29 1470.97 1410.01 C 1471.07 1414.67 1470.85 1419.34 1471.07 1424.01 C 1471.05 1425.47 1472.55 1426.71 1474.01 1426.68 C 1479.33 1426.85 1484.66 1426.78 1489.99 1426.72 C 1491.49 1426.78 1493.32 1425.67 1493.18 1423.98 C 1493.34 1418.32 1493.37 1412.65 1493.16 1407.00 C 1492.92 1403.97 1489.13 1404.36 1486.97 1404.36 C 1482.04 1404.73 1476.90 1403.64 1472.13 1405.02 M 1495.25 1405.08 C 1493.05 1408.91 1494.67 1413.72 1494.18 1417.96 C 1494.53 1420.74 1492.96 1425.35 1496.45 1426.56 C 1502.24 1426.95 1508.10 1426.80 1513.91 1426.65 C 1515.85 1426.57 1516.68 1424.64 1516.58 1422.94 C 1516.58 1417.59 1516.77 1412.22 1516.46 1406.89 C 1515.81 1403.46 1511.52 1404.57 1509.03 1404.37 C 1504.45 1404.74 1499.63 1403.59 1495.25 1405.08 M 1519.08 1404.85 C 1518.78 1405.15 1518.17 1405.75 1517.87 1406.05 C 1517.07 1410.97 1517.75 1416.03 1517.50 1421.02 C 1517.54 1423.09 1517.14 1426.40 1520.07 1426.64 C 1525.69 1426.86 1531.34 1426.83 1536.98 1426.66 C 1538.94 1426.70 1539.94 1424.71 1539.85 1423.00 C 1539.86 1417.71 1540.02 1412.41 1539.76 1407.14 C 1539.45 1403.76 1535.36 1404.43 1532.98 1404.36 C 1528.36 1404.66 1523.59 1403.80 1519.08 1404.85 M 1542.07 1405.00 C 1541.81 1405.27 1541.28 1405.81 1541.02 1406.08 C 1540.50 1411.01 1540.92 1416.00 1540.77 1420.96 C 1540.80 1423.00 1540.35 1425.93 1542.98 1426.62 C 1547.66 1426.97 1552.38 1426.65 1557.08 1426.79 C 1558.64 1426.61 1560.48 1427.08 1561.85 1426.05 C 1563.56 1424.94 1562.82 1422.69 1563.03 1421.02 C 1562.86 1416.09 1563.24 1411.15 1562.84 1406.25 C 1561.32 1403.45 1557.61 1404.63 1555.05 1404.37 C 1550.74 1404.71 1546.19 1403.66 1542.07 1405.00 M 1565.14 1405.03 C 1564.91 1405.33 1564.43 1405.94 1564.20 1406.24 C 1563.73 1411.81 1564.09 1417.43 1564.00 1423.04 C 1563.64 1424.82 1565.06 1426.72 1566.97 1426.68 C 1571.62 1426.90 1576.28 1426.68 1580.95 1426.79 C 1582.71 1426.77 1585.08 1426.91 1585.99 1425.00 C 1586.60 1420.34 1586.11 1415.63 1586.30 1410.96 C 1586.13 1408.70 1586.93 1405.20 1583.95 1404.55 C 1579.65 1404.14 1575.34 1404.50 1571.05 1404.36 C 1569.07 1404.46 1566.94 1404.06 1565.14 1405.03 M 1449.21 1428.05 C 1447.44 1429.08 1447.90 1431.26 1447.78 1432.99 C 1447.85 1437.67 1447.65 1442.36 1447.88 1447.05 C 1447.71 1448.71 1449.37 1450.04 1450.95 1449.97 C 1456.35 1450.02 1461.76 1450.08 1467.16 1449.94 C 1468.59 1449.94 1470.13 1448.51 1469.99 1447.03 C 1470.02 1441.67 1470.01 1436.31 1470.00 1430.96 C 1470.23 1429.22 1468.84 1427.50 1467.04 1427.76 C 1461.11 1427.79 1455.09 1427.29 1449.21 1428.05 M 1472.25 1428.15 C 1470.53 1429.62 1471.05 1432.00 1470.98 1434.00 C 1471.12 1438.69 1470.73 1443.40 1471.18 1448.08 C 1471.79 1448.94 1472.61 1450.00 1473.84 1449.93 C 1479.25 1450.10 1484.68 1450.00 1490.10 1449.97 C 1491.72 1450.00 1493.42 1448.71 1493.21 1446.95 C 1493.29 1441.33 1493.40 1435.69 1493.15 1430.09 C 1492.87 1427.06 1489.12 1427.79 1487.01 1427.67 C 1482.10 1427.95 1477.07 1427.13 1472.25 1428.15 M 1495.28 1428.35 C 1495.05 1428.77 1494.58 1429.61 1494.34 1430.03 C 1493.99 1435.31 1494.22 1440.63 1494.21 1445.93 C 1494.02 1447.62 1494.90 1449.71 1496.82 1449.91 C 1501.88 1450.14 1506.96 1449.93 1512.05 1450.02 C 1513.63 1450.07 1515.99 1449.83 1516.36 1447.89 C 1516.93 1443.27 1516.44 1438.59 1516.63 1433.96 C 1516.50 1431.91 1517.03 1429.22 1514.97 1427.99 C 1510.69 1427.33 1506.34 1427.85 1502.04 1427.68 C 1499.79 1427.80 1497.33 1427.26 1495.28 1428.35 M 1519.11 1427.97 C 1516.74 1429.47 1517.72 1432.63 1517.51 1434.97 C 1517.82 1439.56 1516.88 1444.33 1518.05 1448.82 C 1521.46 1451.22 1526.07 1449.48 1530.00 1450.00 C 1533.12 1449.51 1537.73 1451.43 1539.64 1448.01 C 1540.08 1442.04 1539.94 1436.01 1539.73 1430.05 C 1539.20 1427.25 1536.02 1427.72 1533.94 1427.67 C 1528.99 1427.86 1524.01 1427.33 1519.11 1427.97 M 1541.06 1429.19 C 1540.45 1434.09 1540.95 1439.07 1540.77 1444.01 C 1540.81 1446.08 1540.33 1449.13 1542.95 1449.87 C 1548.29 1450.18 1553.66 1449.94 1559.03 1450.00 C 1560.69 1450.29 1561.92 1449.16 1563.06 1448.14 C 1562.90 1442.40 1563.07 1436.67 1562.99 1430.95 C 1563.05 1429.66 1562.33 1427.92 1560.89 1427.87 C 1555.94 1427.45 1550.96 1427.81 1546.02 1427.67 C 1544.28 1427.77 1542.04 1427.37 1541.06 1429.19 M 1564.01 1430.87 C 1563.91 1436.63 1564.07 1442.41 1563.96 1448.18 C 1565.11 1449.12 1566.28 1450.24 1567.94 1450.00 C 1572.99 1450.01 1578.04 1450.05 1583.09 1449.97 C 1584.70 1450.04 1586.35 1448.68 1586.19 1446.98 C 1586.35 1441.68 1586.30 1436.37 1586.22 1431.08 C 1586.48 1429.18 1584.93 1427.46 1583.02 1427.74 C 1577.68 1427.66 1572.34 1427.62 1567.01 1427.76 C 1565.22 1427.49 1563.87 1429.19 1564.01 1430.87 M 1472.99 1450.99 C 1472.31 1451.61 1471.66 1452.24 1471.02 1452.89 C 1471.01 1458.64 1470.92 1464.40 1471.03 1470.16 C 1470.95 1471.73 1472.29 1473.34 1473.98 1473.16 C 1479.30 1473.30 1484.63 1473.25 1489.95 1473.19 C 1491.34 1473.31 1493.12 1472.53 1493.14 1470.93 C 1493.42 1465.29 1493.28 1459.62 1493.21 1453.98 C 1493.44 1452.19 1491.72 1450.89 1490.09 1451.01 C 1484.39 1450.93 1478.68 1451.04 1472.99 1450.99 M 1496.12 1451.13 C 1494.65 1451.86 1494.04 1453.47 1494.20 1455.06 C 1494.17 1460.04 1494.10 1465.04 1494.25 1470.03 C 1494.16 1471.46 1495.31 1473.23 1496.93 1473.13 C 1502.59 1473.30 1508.28 1473.31 1513.95 1473.13 C 1515.53 1473.22 1516.56 1471.42 1516.54 1470.03 C 1516.69 1465.01 1516.60 1460.00 1516.59 1454.99 C 1516.69 1453.32 1515.98 1451.11 1514.04 1451.07 C 1508.07 1450.96 1502.07 1450.86 1496.12 1451.13 M 1519.26 1451.26 C 1517.30 1451.97 1517.55 1454.26 1517.51 1455.96 C 1517.57 1460.61 1517.43 1465.28 1517.56 1469.95 C 1517.45 1471.33 1518.37 1473.17 1519.99 1473.12 C 1525.65 1473.32 1531.34 1473.29 1537.01 1473.14 C 1539.20 1473.27 1540.03 1470.75 1539.88 1468.98 C 1539.84 1463.98 1540.00 1458.97 1539.79 1453.99 C 1539.82 1452.05 1537.85 1450.59 1536.03 1450.99 C 1530.44 1451.15 1524.80 1450.64 1519.26 1451.26 M 1540.85 1454.00 C 1540.73 1459.32 1540.75 1464.66 1540.84 1470.00 C 1540.66 1471.37 1541.49 1473.10 1543.09 1473.10 C 1548.73 1473.36 1554.40 1473.24 1560.06 1473.16 C 1561.74 1473.37 1563.10 1471.74 1562.99 1470.14 C 1563.07 1464.39 1562.94 1458.65 1563.02 1452.92 C 1562.35 1452.25 1561.70 1451.61 1561.06 1450.98 C 1554.96 1450.98 1548.86 1451.08 1542.77 1450.91 C 1541.95 1451.78 1540.62 1452.57 1540.85 1454.00 Z" />
<path fill="#212121" opacity="1.00" d=" M 2488.51 1203.16 C 2519.65 1205.17 2550.63 1209.42 2581.40 1214.51 C 2666.44 1228.99 2749.50 1253.14 2831.14 1280.68 C 2907.59 1306.28 2982.67 1335.75 3057.21 1366.40 C 3052.66 1370.12 3047.83 1373.53 3043.85 1377.88 C 3030.23 1391.95 3022.43 1411.43 3022.59 1431.01 C 3022.53 1449.39 3029.47 1467.65 3041.66 1481.40 C 3051.58 1492.87 3065.06 1500.83 3079.55 1505.07 C 3075.01 1510.71 3069.20 1515.09 3064.09 1520.16 C 3050.48 1532.20 3036.43 1543.75 3022.30 1555.15 C 2980.16 1566.64 2938.14 1578.63 2896.47 1591.74 C 2854.34 1604.82 2812.45 1618.68 2770.22 1631.43 C 2729.04 1643.88 2687.27 1654.54 2644.95 1662.29 C 2615.83 1667.50 2586.44 1671.17 2556.95 1673.36 C 2553.59 1669.75 2550.14 1666.21 2546.96 1662.45 C 2523.08 1636.09 2502.35 1606.85 2485.44 1575.55 C 2465.27 1538.00 2451.10 1497.20 2444.16 1455.12 C 2430.85 1375.79 2443.49 1292.36 2479.62 1220.50 C 2482.29 1214.56 2485.80 1209.06 2488.51 1203.16 M 2513.28 1381.33 C 2509.87 1382.72 2511.46 1387.14 2511.11 1389.97 C 2511.63 1394.18 2509.94 1399.01 2512.16 1402.83 C 2516.59 1404.20 2521.45 1403.10 2526.07 1403.48 C 2528.50 1403.27 2532.74 1404.38 2533.34 1400.97 C 2533.58 1395.33 2533.52 1389.66 2533.38 1384.02 C 2533.50 1381.66 2530.87 1380.94 2529.03 1381.15 C 2523.78 1381.26 2518.50 1380.91 2513.28 1381.33 M 2536.36 1381.38 C 2534.31 1381.90 2534.39 1384.27 2534.38 1385.95 C 2534.41 1390.61 2534.31 1395.27 2534.42 1399.94 C 2534.29 1401.44 2535.13 1403.33 2536.93 1403.35 C 2542.64 1403.55 2548.38 1403.54 2554.11 1403.35 C 2556.36 1403.36 2556.84 1400.73 2556.75 1398.97 C 2556.67 1394.01 2556.88 1389.05 2556.65 1384.10 C 2556.74 1382.12 2554.77 1380.99 2553.05 1381.18 C 2547.48 1381.24 2541.88 1380.87 2536.36 1381.38 M 2559.39 1381.49 C 2557.48 1382.12 2557.69 1384.37 2557.65 1385.99 C 2557.73 1390.99 2557.45 1396.02 2557.80 1401.02 C 2557.78 1402.62 2559.54 1403.53 2561.01 1403.43 C 2566.31 1403.48 2571.63 1403.53 2576.94 1403.40 C 2578.78 1403.61 2580.03 1401.78 2579.98 1400.10 C 2580.01 1394.70 2580.18 1389.28 2579.92 1383.90 C 2579.72 1381.44 2576.92 1380.89 2574.96 1381.14 C 2569.77 1381.36 2564.49 1380.71 2559.39 1381.49 M 2580.92 1382.86 C 2581.10 1388.91 2580.78 1394.98 2581.03 1401.05 C 2580.98 1402.50 2582.58 1403.47 2583.98 1403.40 C 2589.30 1403.52 2594.64 1403.50 2599.98 1403.41 C 2601.36 1403.51 2603.10 1402.50 2603.05 1400.94 C 2603.21 1395.31 2603.17 1389.66 2603.07 1384.03 C 2603.19 1382.43 2601.57 1381.13 2600.10 1381.20 C 2594.68 1381.11 2589.26 1381.08 2583.87 1381.22 C 2582.61 1381.14 2581.85 1382.27 2580.92 1382.86 M 2606.30 1381.32 C 2602.80 1382.68 2604.37 1387.16 2604.05 1390.03 C 2604.58 1394.25 2602.81 1399.16 2605.22 1402.92 C 2609.67 1404.10 2614.42 1403.15 2619.01 1403.48 C 2621.30 1403.21 2624.57 1404.29 2626.05 1401.90 C 2626.86 1397.00 2626.17 1391.96 2626.43 1387.02 C 2626.37 1384.91 2626.76 1381.60 2623.94 1381.27 C 2618.06 1381.08 2612.15 1381.01 2606.30 1381.32 M 2629.34 1381.38 C 2626.35 1382.57 2627.56 1386.46 2627.31 1388.96 C 2627.78 1393.48 2626.28 1398.48 2628.26 1402.69 C 2632.55 1404.34 2637.45 1403.05 2642.01 1403.48 C 2644.51 1403.23 2648.99 1404.47 2649.56 1400.94 C 2649.78 1395.33 2649.70 1389.70 2649.60 1384.09 C 2649.65 1382.22 2647.84 1381.00 2646.13 1381.18 C 2640.53 1381.23 2634.90 1380.88 2629.34 1381.38 M 2512.19 1405.08 C 2510.71 1406.68 2511.17 1408.98 2511.10 1410.98 C 2511.21 1415.29 2510.93 1419.62 2511.22 1423.94 C 2511.21 1425.84 2513.15 1426.85 2514.89 1426.73 C 2520.22 1426.75 2525.57 1426.91 2530.91 1426.64 C 2532.73 1426.49 2533.55 1424.64 2533.45 1423.00 C 2533.44 1417.66 2533.61 1412.30 2533.35 1406.98 C 2532.80 1403.53 2528.51 1404.53 2526.06 1404.37 C 2521.45 1404.73 2516.62 1403.61 2512.19 1405.08 M 2535.30 1405.25 C 2533.35 1409.47 2534.85 1414.49 2534.37 1419.04 C 2534.62 1421.50 2533.41 1425.43 2536.47 1426.54 C 2541.61 1427.05 2546.82 1426.63 2552.00 1426.78 C 2553.94 1426.93 2556.65 1426.39 2556.64 1423.90 C 2556.89 1418.95 2556.66 1413.99 2556.75 1409.05 C 2556.68 1407.48 2556.70 1405.17 2554.84 1404.69 C 2550.59 1404.00 2546.25 1404.56 2541.99 1404.37 C 2539.75 1404.52 2537.21 1403.89 2535.30 1405.25 M 2559.16 1404.90 C 2558.86 1405.19 2558.26 1405.77 2557.97 1406.06 C 2557.26 1410.98 2557.83 1416.00 2557.63 1420.97 C 2557.60 1423.00 2557.38 1426.11 2560.02 1426.62 C 2565.87 1426.86 2571.79 1426.90 2577.65 1426.59 C 2581.23 1425.40 2579.70 1420.77 2580.05 1417.95 C 2579.50 1413.72 2581.29 1408.75 2578.83 1405.05 C 2575.71 1403.78 2572.22 1404.58 2568.98 1404.39 C 2565.70 1404.58 2562.27 1403.84 2559.16 1404.90 M 2581.09 1406.17 C 2580.83 1412.10 2580.98 1418.05 2580.99 1424.00 C 2580.83 1425.56 2582.59 1426.73 2584.06 1426.72 C 2589.03 1426.83 2594.03 1426.76 2599.03 1426.75 C 2600.60 1426.95 2601.91 1426.03 2603.12 1425.13 C 2603.05 1419.08 2603.28 1413.02 2603.05 1406.98 C 2603.09 1405.39 2601.28 1404.41 2599.92 1404.46 C 2595.60 1404.24 2591.28 1404.45 2586.98 1404.36 C 2584.92 1404.43 2582.23 1404.01 2581.09 1406.17 M 2605.17 1405.04 C 2602.85 1408.87 2604.57 1413.78 2604.04 1418.05 C 2604.35 1420.85 2602.82 1425.47 2606.44 1426.60 C 2611.59 1426.99 2616.80 1426.67 2622.00 1426.76 C 2623.76 1426.91 2626.31 1426.26 2626.30 1424.03 C 2626.48 1418.34 2626.50 1412.64 2626.29 1406.97 C 2625.71 1403.59 2621.48 1404.51 2619.05 1404.37 C 2614.43 1404.72 2609.60 1403.64 2605.17 1405.04 M 2628.19 1405.22 C 2626.97 1406.89 2627.38 1409.05 2627.30 1410.99 C 2627.42 1415.30 2627.12 1419.62 2627.43 1423.93 C 2627.32 1425.80 2629.20 1426.82 2630.89 1426.73 C 2635.95 1426.80 2641.03 1426.79 2646.12 1426.73 C 2647.79 1426.86 2649.60 1425.73 2649.59 1423.90 C 2649.81 1419.28 2649.58 1414.65 2649.70 1410.04 C 2649.59 1408.19 2650.01 1405.56 2647.88 1404.71 C 2643.63 1403.96 2639.28 1404.58 2635.01 1404.37 C 2632.72 1404.49 2630.19 1403.93 2628.19 1405.22 Z" />
<path fill="#212121" opacity="1.00" d=" M 2546.15 1664.26 C 2546.50 1664.26 2547.20 1664.27 2547.55 1664.27 C 2553.26 1670.19 2558.94 1676.13 2564.75 1681.96 C 2551.60 1683.10 2538.56 1685.68 2525.33 1685.64 C 2525.07 1684.93 2524.56 1683.52 2524.30 1682.81 C 2527.03 1678.99 2531.07 1676.48 2534.62 1673.50 C 2538.49 1670.46 2542.23 1667.25 2546.15 1664.26 Z" />
</g>
<g id="#dde33aff">
<path fill="#dde33a" opacity="1.00" d=" M 1471.11 1336.99 C 1471.71 1334.29 1474.85 1334.74 1476.96 1334.67 C 1481.60 1334.80 1486.27 1334.46 1490.91 1334.86 C 1492.47 1334.90 1493.38 1336.55 1493.23 1338.01 C 1493.30 1343.35 1493.34 1348.70 1493.21 1354.05 C 1493.43 1355.81 1491.67 1357.09 1490.05 1356.98 C 1484.29 1357.07 1478.53 1356.94 1472.78 1357.02 C 1471.82 1355.89 1470.70 1354.71 1471.00 1353.11 C 1471.03 1347.73 1470.83 1342.35 1471.11 1336.99 Z" />
<path fill="#dde33a" opacity="1.00" d=" M 1495.28 1335.41 C 1496.95 1334.35 1499.06 1334.79 1500.96 1334.67 C 1505.59 1334.86 1510.27 1334.33 1514.89 1334.99 C 1517.05 1336.16 1516.50 1338.94 1516.63 1341.01 C 1516.44 1345.62 1516.93 1350.27 1516.37 1354.87 C 1516.14 1356.40 1514.41 1357.06 1513.06 1356.99 C 1507.69 1356.99 1502.32 1357.08 1496.96 1356.94 C 1494.98 1356.92 1494.01 1354.69 1494.21 1352.99 C 1494.22 1347.68 1493.98 1342.35 1494.35 1337.06 C 1494.59 1336.64 1495.05 1335.82 1495.28 1335.41 Z" />
<path fill="#dde33a" opacity="1.00" d=" M 1519.12 1335.01 C 1524.03 1334.30 1529.03 1334.87 1533.99 1334.67 C 1536.04 1334.73 1539.22 1334.33 1539.72 1337.09 C 1540.10 1341.37 1539.75 1345.69 1539.90 1349.99 C 1539.75 1352.33 1540.47 1355.47 1537.97 1356.83 C 1532.31 1357.22 1526.62 1356.93 1520.95 1356.99 C 1519.23 1357.16 1517.37 1355.90 1517.60 1354.04 C 1517.39 1349.36 1517.59 1344.68 1517.50 1340.00 C 1517.52 1338.23 1517.30 1336.00 1519.12 1335.01 Z" />
<path fill="#dde33a" opacity="1.00" d=" M 1540.84 1337.94 C 1540.51 1336.08 1542.16 1334.57 1543.98 1334.76 C 1549.31 1334.65 1554.65 1334.60 1559.99 1334.78 C 1561.75 1334.56 1563.15 1336.21 1562.99 1337.92 C 1563.07 1343.63 1562.94 1349.34 1563.02 1355.05 C 1562.35 1355.69 1561.71 1356.34 1561.07 1357.00 C 1554.97 1357.04 1548.87 1356.90 1542.78 1357.09 C 1541.99 1356.18 1540.63 1355.41 1540.85 1354.04 C 1540.73 1348.67 1540.75 1343.30 1540.84 1337.94 Z" />
<path fill="#dde33a" opacity="1.00" d=" M 1449.31 1358.36 C 1454.77 1357.48 1460.50 1358.24 1466.07 1357.98 C 1467.85 1357.60 1470.10 1358.81 1469.99 1360.84 C 1470.03 1366.24 1470.01 1371.66 1469.99 1377.08 C 1470.22 1378.79 1468.65 1380.32 1466.96 1380.16 C 1461.33 1380.24 1455.69 1380.39 1450.08 1380.07 C 1447.19 1379.67 1447.90 1376.10 1447.77 1374.03 C 1448.03 1369.12 1447.26 1364.09 1448.23 1359.26 C 1448.50 1359.03 1449.04 1358.59 1449.31 1358.36 Z" />
<path fill="#dde33a" opacity="1.00" d=" M 1473.00 1357.97 C 1478.68 1358.04 1484.37 1357.94 1490.07 1358.01 C 1491.74 1357.81 1493.46 1359.18 1493.21 1360.99 C 1493.33 1366.31 1493.31 1371.66 1493.22 1377.00 C 1493.50 1378.91 1491.77 1380.43 1489.92 1380.18 C 1484.63 1380.25 1479.34 1380.31 1474.06 1380.15 C 1472.30 1380.32 1470.91 1378.70 1471.02 1377.04 C 1470.92 1371.32 1471.03 1365.60 1471.01 1359.89 C 1471.65 1359.23 1472.32 1358.59 1473.00 1357.97 Z" />
<path fill="#dde33a" opacity="1.00" d=" M 1496.14 1358.11 C 1501.76 1357.83 1507.40 1358.05 1513.03 1358.00 C 1514.89 1357.64 1516.65 1359.17 1516.53 1361.11 C 1516.62 1366.71 1516.79 1372.34 1516.42 1377.94 C 1515.93 1380.51 1513.03 1380.21 1511.06 1380.25 C 1506.06 1380.08 1501.03 1380.52 1496.06 1380.00 C 1492.63 1377.58 1494.75 1372.57 1494.19 1369.05 C 1494.74 1365.50 1492.64 1360.51 1496.14 1358.11 Z" />
<path fill="#dde33a" opacity="1.00" d=" M 1517.53 1361.98 C 1517.37 1360.34 1517.96 1358.15 1519.92 1358.07 C 1525.96 1357.83 1532.03 1358.13 1538.08 1357.93 C 1538.66 1358.91 1539.82 1359.71 1539.80 1361.00 C 1540.01 1365.66 1539.81 1370.33 1539.90 1375.01 C 1539.91 1376.78 1539.93 1379.17 1537.98 1379.99 C 1533.02 1380.53 1528.02 1380.08 1523.05 1380.25 C 1521.05 1380.20 1518.10 1380.53 1517.65 1377.92 C 1517.35 1372.61 1517.58 1367.29 1517.53 1361.98 Z" />
<path fill="#dde33a" opacity="1.00" d=" M 1540.85 1360.98 C 1540.57 1359.21 1542.27 1357.82 1543.95 1358.01 C 1549.67 1357.92 1555.39 1358.05 1561.12 1357.98 C 1561.74 1358.60 1562.37 1359.25 1563.02 1359.91 C 1562.95 1365.61 1563.05 1371.33 1562.99 1377.05 C 1563.13 1378.69 1561.73 1380.34 1560.01 1380.15 C 1554.66 1380.31 1549.29 1380.26 1543.95 1380.17 C 1542.17 1380.33 1540.52 1378.85 1540.84 1377.05 C 1540.75 1371.69 1540.73 1366.33 1540.85 1360.98 Z" />
<path fill="#dde33a" opacity="1.00" d=" M 1565.92 1357.98 C 1571.64 1358.05 1577.36 1357.93 1583.08 1358.00 C 1584.76 1357.82 1586.40 1359.23 1586.20 1361.01 C 1586.34 1366.33 1586.32 1371.67 1586.21 1377.00 C 1586.44 1378.85 1584.82 1380.43 1582.98 1380.18 C 1577.64 1380.26 1572.30 1380.30 1566.97 1380.15 C 1565.31 1380.28 1563.87 1378.71 1564.02 1377.12 C 1563.92 1371.37 1564.04 1365.63 1563.99 1359.90 C 1564.62 1359.24 1565.26 1358.60 1565.92 1357.98 Z" />
<path fill="#dde33a" opacity="1.00" d=" M 1162.25 1381.33 C 1167.47 1380.91 1172.74 1381.25 1177.99 1381.15 C 1179.87 1380.94 1182.54 1381.65 1182.39 1384.06 C 1182.54 1389.36 1182.33 1394.68 1182.44 1399.99 C 1182.70 1401.96 1180.98 1403.67 1179.01 1403.43 C 1173.67 1403.46 1168.31 1403.56 1162.97 1403.38 C 1161.13 1403.52 1160.08 1401.69 1160.16 1400.09 C 1160.07 1395.03 1160.09 1389.96 1160.15 1384.91 C 1160.01 1383.41 1160.71 1381.77 1162.25 1381.33 Z" />
<path fill="#dde33a" opacity="1.00" d=" M 1185.35 1381.40 C 1191.16 1380.88 1197.07 1381.18 1202.92 1381.24 C 1204.94 1381.22 1205.90 1383.32 1205.73 1385.12 C 1205.71 1390.37 1205.90 1395.63 1205.62 1400.88 C 1205.07 1404.56 1200.52 1403.19 1197.95 1403.48 C 1193.44 1403.05 1188.57 1404.34 1184.31 1402.70 C 1182.32 1397.54 1183.18 1391.64 1183.38 1386.19 C 1183.47 1384.47 1183.20 1381.95 1185.35 1381.40 Z" />
<path fill="#dde33a" opacity="1.00" d=" M 1208.38 1381.50 C 1213.50 1380.70 1218.80 1381.36 1224.00 1381.14 C 1225.95 1380.91 1228.65 1381.42 1228.91 1383.81 C 1229.17 1389.23 1229.05 1394.68 1228.98 1400.11 C 1229.04 1401.79 1227.79 1403.60 1225.95 1403.39 C 1220.63 1403.54 1215.30 1403.48 1209.99 1403.42 C 1208.53 1403.51 1206.77 1402.60 1206.79 1401.00 C 1206.46 1396.00 1206.73 1390.99 1206.65 1386.00 C 1206.71 1384.38 1206.50 1382.14 1208.38 1381.50 Z" />
<path fill="#dde33a" opacity="1.00" d=" M 1229.96 1382.99 C 1230.60 1382.37 1231.26 1381.77 1231.93 1381.18 C 1237.65 1381.20 1243.37 1381.05 1249.10 1381.21 C 1250.53 1381.12 1252.18 1382.40 1252.07 1383.95 C 1252.19 1389.61 1252.21 1395.29 1252.05 1400.96 C 1252.13 1402.52 1250.33 1403.49 1248.95 1403.42 C 1243.62 1403.49 1238.29 1403.52 1232.97 1403.40 C 1231.58 1403.47 1229.96 1402.47 1230.02 1400.99 C 1229.85 1394.99 1230.03 1388.99 1229.96 1382.99 Z" />
<path fill="#dde33a" opacity="1.00" d=" M 1255.24 1381.33 C 1259.80 1380.89 1264.40 1381.29 1268.99 1381.13 C 1270.92 1381.23 1273.25 1380.74 1274.82 1382.24 C 1275.82 1384.67 1275.28 1387.41 1275.42 1389.99 C 1275.22 1393.93 1275.82 1397.95 1275.07 1401.86 C 1274.15 1403.78 1271.69 1403.37 1269.96 1403.49 C 1265.02 1403.31 1260.05 1403.73 1255.13 1403.26 C 1253.22 1402.90 1253.02 1400.58 1253.05 1399.05 C 1253.06 1394.36 1253.00 1389.67 1253.08 1384.99 C 1252.93 1383.46 1253.67 1381.78 1255.24 1381.33 Z" />
<path fill="#dde33a" opacity="1.00" d=" M 1278.41 1381.37 C 1282.92 1380.84 1287.49 1381.31 1292.03 1381.13 C 1293.97 1381.27 1296.31 1380.68 1297.92 1382.14 C 1298.92 1383.52 1298.58 1385.31 1298.70 1386.93 C 1298.57 1391.58 1298.86 1396.25 1298.56 1400.91 C 1298.46 1402.73 1296.61 1403.60 1294.97 1403.44 C 1289.64 1403.44 1284.30 1403.60 1278.98 1403.35 C 1275.41 1402.95 1276.48 1398.45 1276.31 1395.98 C 1276.70 1391.39 1275.49 1386.52 1277.05 1382.14 C 1277.39 1381.95 1278.07 1381.56 1278.41 1381.37 Z" />
<path fill="#dde33a" opacity="1.00" d=" M 1496.40 1381.33 C 1501.55 1380.90 1506.76 1381.26 1511.95 1381.14 C 1513.70 1381.03 1516.33 1381.38 1516.43 1383.67 C 1516.99 1389.30 1516.73 1394.98 1516.49 1400.64 C 1516.52 1402.47 1514.69 1403.59 1513.01 1403.43 C 1508.01 1403.50 1503.01 1403.48 1498.02 1403.44 C 1496.32 1403.60 1494.41 1402.77 1494.32 1400.89 C 1493.97 1396.28 1494.28 1391.66 1494.16 1387.06 C 1494.21 1385.02 1493.86 1381.99 1496.40 1381.33 Z" />
<path fill="#dde33a" opacity="1.00" d=" M 2513.28 1381.33 C 2518.50 1380.91 2523.78 1381.26 2529.03 1381.15 C 2530.87 1380.94 2533.50 1381.66 2533.38 1384.02 C 2533.52 1389.66 2533.58 1395.33 2533.34 1400.97 C 2532.74 1404.38 2528.50 1403.27 2526.07 1403.48 C 2521.45 1403.10 2516.59 1404.20 2512.16 1402.83 C 2509.94 1399.01 2511.63 1394.18 2511.11 1389.97 C 2511.46 1387.14 2509.87 1382.72 2513.28 1381.33 Z" />
<path fill="#dde33a" opacity="1.00" d=" M 2536.36 1381.38 C 2541.88 1380.87 2547.48 1381.24 2553.05 1381.18 C 2554.77 1380.99 2556.74 1382.12 2556.65 1384.10 C 2556.88 1389.05 2556.67 1394.01 2556.75 1398.97 C 2556.84 1400.73 2556.36 1403.36 2554.11 1403.35 C 2548.38 1403.54 2542.64 1403.55 2536.93 1403.35 C 2535.13 1403.33 2534.29 1401.44 2534.42 1399.94 C 2534.31 1395.27 2534.41 1390.61 2534.38 1385.95 C 2534.39 1384.27 2534.31 1381.90 2536.36 1381.38 Z" />
<path fill="#dde33a" opacity="1.00" d=" M 2559.39 1381.49 C 2564.49 1380.71 2569.77 1381.36 2574.96 1381.14 C 2576.92 1380.89 2579.72 1381.44 2579.92 1383.90 C 2580.18 1389.28 2580.01 1394.70 2579.98 1400.10 C 2580.03 1401.78 2578.78 1403.61 2576.94 1403.40 C 2571.63 1403.53 2566.31 1403.48 2561.01 1403.43 C 2559.54 1403.53 2557.78 1402.62 2557.80 1401.02 C 2557.45 1396.02 2557.73 1390.99 2557.65 1385.99 C 2557.69 1384.37 2557.48 1382.12 2559.39 1381.49 Z" />
<path fill="#dde33a" opacity="1.00" d=" M 2580.92 1382.86 C 2581.85 1382.27 2582.61 1381.14 2583.87 1381.22 C 2589.26 1381.08 2594.68 1381.11 2600.10 1381.20 C 2601.57 1381.13 2603.19 1382.43 2603.07 1384.03 C 2603.17 1389.66 2603.21 1395.31 2603.05 1400.94 C 2603.10 1402.50 2601.36 1403.51 2599.98 1403.41 C 2594.64 1403.50 2589.30 1403.52 2583.98 1403.40 C 2582.58 1403.47 2580.98 1402.50 2581.03 1401.05 C 2580.78 1394.98 2581.10 1388.91 2580.92 1382.86 Z" />
<path fill="#dde33a" opacity="1.00" d=" M 2606.30 1381.32 C 2612.15 1381.01 2618.06 1381.08 2623.94 1381.27 C 2626.76 1381.60 2626.37 1384.91 2626.43 1387.02 C 2626.17 1391.96 2626.86 1397.00 2626.05 1401.90 C 2624.57 1404.29 2621.30 1403.21 2619.01 1403.48 C 2614.42 1403.15 2609.67 1404.10 2605.22 1402.92 C 2602.81 1399.16 2604.58 1394.25 2604.05 1390.03 C 2604.37 1387.16 2602.80 1382.68 2606.30 1381.32 Z" />
<path fill="#dde33a" opacity="1.00" d=" M 2629.34 1381.38 C 2634.90 1380.88 2640.53 1381.23 2646.13 1381.18 C 2647.84 1381.00 2649.65 1382.22 2649.60 1384.09 C 2649.70 1389.70 2649.78 1395.33 2649.56 1400.94 C 2648.99 1404.47 2644.51 1403.23 2642.01 1403.48 C 2637.45 1403.05 2632.55 1404.34 2628.26 1402.69 C 2626.28 1398.48 2627.78 1393.48 2627.31 1388.96 C 2627.56 1386.46 2626.35 1382.57 2629.34 1381.38 Z" />
<path fill="#dde33a" opacity="1.00" d=" M 1447.89 1383.99 C 1447.74 1382.30 1449.51 1381.03 1451.09 1381.19 C 1456.73 1381.07 1462.39 1381.18 1468.04 1381.19 C 1468.54 1381.64 1469.52 1382.54 1470.01 1382.99 C 1469.92 1389.00 1470.11 1395.02 1469.95 1401.03 C 1469.95 1402.52 1468.29 1403.50 1466.94 1403.41 C 1461.65 1403.52 1456.35 1403.49 1451.08 1403.42 C 1449.68 1403.48 1447.86 1402.58 1447.92 1401.02 C 1447.68 1395.35 1447.73 1389.66 1447.89 1383.99 Z" />
<path fill="#dde33a" opacity="1.00" d=" M 1471.64 1382.43 C 1472.84 1380.66 1475.12 1381.28 1476.95 1381.13 C 1481.62 1381.26 1486.32 1380.95 1491.00 1381.28 C 1493.72 1381.83 1493.21 1384.95 1493.30 1387.03 C 1493.17 1391.69 1493.46 1396.37 1493.15 1401.04 C 1493.12 1403.09 1490.64 1403.55 1489.03 1403.47 C 1483.75 1403.36 1478.45 1403.69 1473.20 1403.29 C 1470.02 1402.44 1471.19 1398.38 1470.98 1395.98 C 1471.38 1391.50 1470.18 1386.66 1471.64 1382.43 Z" />
<path fill="#dde33a" opacity="1.00" d=" M 1518.19 1382.13 C 1520.14 1380.61 1522.75 1381.27 1525.05 1381.14 C 1529.32 1381.31 1533.63 1380.82 1537.89 1381.39 C 1539.78 1382.01 1539.89 1384.24 1539.89 1385.92 C 1539.84 1390.61 1539.96 1395.32 1539.83 1400.03 C 1539.90 1401.67 1538.76 1403.56 1536.92 1403.38 C 1531.95 1403.58 1526.97 1403.40 1522.01 1403.48 C 1520.23 1403.57 1517.74 1403.17 1517.64 1400.97 C 1517.31 1396.65 1517.69 1392.32 1517.52 1388.00 C 1517.61 1386.04 1517.16 1383.89 1518.19 1382.13 Z" />
<path fill="#dde33a" opacity="1.00" d=" M 1541.42 1382.29 C 1541.83 1382.03 1542.64 1381.53 1543.05 1381.28 C 1547.69 1380.94 1552.36 1381.26 1557.03 1381.13 C 1559.11 1381.13 1561.83 1380.79 1562.90 1383.13 C 1563.14 1388.76 1562.95 1394.41 1562.99 1400.06 C 1563.24 1401.82 1561.81 1403.59 1559.96 1403.40 C 1554.34 1403.47 1548.71 1403.61 1543.11 1403.33 C 1539.72 1402.62 1541.06 1398.48 1540.78 1396.03 C 1541.15 1391.48 1540.04 1386.61 1541.42 1382.29 Z" />
<path fill="#dde33a" opacity="1.00" d=" M 1564.58 1382.45 C 1565.80 1380.66 1568.11 1381.27 1569.96 1381.13 C 1574.63 1381.26 1579.33 1380.94 1584.01 1381.28 C 1586.62 1381.88 1586.21 1384.90 1586.29 1386.96 C 1586.17 1391.60 1586.46 1396.26 1586.15 1400.91 C 1586.16 1403.01 1583.68 1403.59 1582.02 1403.47 C 1576.71 1403.36 1571.40 1403.70 1566.12 1403.29 C 1562.97 1402.42 1564.23 1398.41 1563.98 1396.03 C 1564.37 1391.56 1563.21 1386.65 1564.58 1382.45 Z" />
<path fill="#dde33a" opacity="1.00" d=" M 1161.22 1405.06 C 1165.61 1403.62 1170.40 1404.72 1174.96 1404.37 C 1177.45 1404.54 1181.74 1403.50 1182.35 1406.95 C 1182.62 1412.27 1182.45 1417.62 1182.45 1422.96 C 1182.56 1424.58 1181.79 1426.48 1179.95 1426.63 C 1174.60 1426.92 1169.24 1426.74 1163.90 1426.74 C 1162.20 1426.84 1160.29 1425.89 1160.23 1424.02 C 1159.93 1419.69 1160.22 1415.35 1160.10 1411.03 C 1160.20 1409.01 1159.69 1406.66 1161.22 1405.06 Z" />
<path fill="#dde33a" opacity="1.00" d=" M 1185.02 1404.83 C 1189.56 1403.83 1194.35 1404.65 1199.00 1404.36 C 1201.33 1404.46 1205.30 1403.76 1205.63 1407.09 C 1205.94 1411.38 1205.62 1415.69 1205.77 1420.00 C 1205.66 1421.93 1206.05 1424.10 1204.93 1425.84 C 1203.23 1427.15 1200.96 1426.65 1199.00 1426.79 C 1194.68 1426.66 1190.36 1426.95 1186.06 1426.65 C 1184.66 1426.55 1183.46 1425.38 1183.50 1423.97 C 1183.22 1418.97 1183.46 1413.96 1183.38 1408.97 C 1183.41 1407.50 1183.37 1405.41 1185.02 1404.83 Z" />
<path fill="#dde33a" opacity="1.00" d=" M 1208.15 1404.90 C 1209.95 1404.04 1212.05 1404.47 1214.00 1404.37 C 1218.29 1404.54 1222.63 1404.05 1226.91 1404.64 C 1228.79 1405.06 1229.06 1407.32 1229.04 1408.93 C 1229.04 1413.64 1229.12 1418.36 1229.00 1423.08 C 1229.14 1424.84 1227.83 1426.73 1225.95 1426.69 C 1220.61 1426.84 1215.26 1426.80 1209.93 1426.71 C 1207.91 1426.89 1206.41 1424.95 1206.69 1423.05 C 1206.77 1417.39 1206.30 1411.68 1206.97 1406.06 C 1207.26 1405.77 1207.85 1405.19 1208.15 1404.90 Z" />
<path fill="#dde33a" opacity="1.00" d=" M 1231.17 1405.00 C 1235.56 1403.64 1240.39 1404.72 1244.97 1404.36 C 1247.30 1404.54 1250.45 1403.73 1251.94 1406.12 C 1252.37 1411.75 1252.06 1417.42 1252.12 1423.07 C 1252.49 1424.96 1250.87 1426.80 1248.95 1426.70 C 1243.94 1426.86 1238.93 1426.74 1233.93 1426.76 C 1232.40 1426.87 1230.84 1426.30 1230.08 1424.93 C 1229.79 1419.96 1230.09 1414.98 1229.95 1410.02 C 1230.10 1408.30 1229.37 1406.06 1231.17 1405.00 Z" />
<path fill="#dde33a" opacity="1.00" d=" M 1254.15 1405.06 C 1255.93 1404.10 1258.03 1404.43 1260.00 1404.36 C 1264.32 1404.50 1268.67 1404.15 1272.99 1404.55 C 1276.01 1405.15 1275.32 1408.74 1275.43 1411.02 C 1275.22 1415.66 1275.77 1420.36 1275.12 1424.99 C 1274.24 1426.98 1271.74 1426.70 1269.97 1426.78 C 1265.34 1426.69 1260.70 1426.90 1256.08 1426.69 C 1254.58 1426.68 1253.23 1425.49 1253.16 1424.00 C 1252.86 1419.67 1253.15 1415.33 1253.03 1411.01 C 1253.14 1409.00 1252.63 1406.66 1254.15 1405.06 Z" />
<path fill="#dde33a" opacity="1.00" d=" M 1277.21 1405.22 C 1279.55 1403.83 1282.44 1404.53 1285.05 1404.38 C 1288.99 1404.58 1293.04 1403.92 1296.94 1404.76 C 1299.02 1405.60 1298.59 1408.19 1298.70 1410.00 C 1298.53 1414.86 1298.95 1419.75 1298.48 1424.60 C 1297.91 1427.01 1294.98 1426.75 1293.08 1426.79 C 1288.20 1426.60 1283.29 1427.07 1278.45 1426.54 C 1275.34 1425.50 1276.57 1421.46 1276.31 1418.99 C 1276.76 1414.44 1275.33 1409.48 1277.21 1405.22 Z" />
<path fill="#dde33a" opacity="1.00" d=" M 1449.11 1404.96 C 1453.23 1403.70 1457.73 1404.69 1462.01 1404.37 C 1464.60 1404.62 1468.21 1403.48 1469.87 1406.19 C 1470.17 1412.11 1469.95 1418.07 1469.98 1424.02 C 1470.08 1425.52 1468.34 1426.75 1466.95 1426.70 C 1461.64 1426.82 1456.32 1426.80 1451.02 1426.72 C 1449.61 1426.76 1447.78 1425.64 1447.90 1424.10 C 1447.63 1419.39 1447.86 1414.67 1447.78 1409.97 C 1447.95 1408.25 1447.31 1405.99 1449.11 1404.96 Z" />
<path fill="#dde33a" opacity="1.00" d=" M 1472.13 1405.02 C 1476.90 1403.64 1482.04 1404.73 1486.97 1404.36 C 1489.13 1404.36 1492.92 1403.97 1493.16 1407.00 C 1493.37 1412.65 1493.34 1418.32 1493.18 1423.98 C 1493.32 1425.67 1491.49 1426.78 1489.99 1426.72 C 1484.66 1426.78 1479.33 1426.85 1474.01 1426.68 C 1472.55 1426.71 1471.05 1425.47 1471.07 1424.01 C 1470.85 1419.34 1471.07 1414.67 1470.97 1410.01 C 1471.02 1408.29 1470.69 1406.28 1472.13 1405.02 Z" />
<path fill="#dde33a" opacity="1.00" d=" M 1495.25 1405.08 C 1499.63 1403.59 1504.45 1404.74 1509.03 1404.37 C 1511.52 1404.57 1515.81 1403.46 1516.46 1406.89 C 1516.77 1412.22 1516.58 1417.59 1516.58 1422.94 C 1516.68 1424.64 1515.85 1426.57 1513.91 1426.65 C 1508.10 1426.80 1502.24 1426.95 1496.45 1426.56 C 1492.96 1425.35 1494.53 1420.74 1494.18 1417.96 C 1494.67 1413.72 1493.05 1408.91 1495.25 1405.08 Z" />
<path fill="#dde33a" opacity="1.00" d=" M 1519.08 1404.85 C 1523.59 1403.80 1528.36 1404.66 1532.98 1404.36 C 1535.36 1404.43 1539.45 1403.76 1539.76 1407.14 C 1540.02 1412.41 1539.86 1417.71 1539.85 1423.00 C 1539.94 1424.71 1538.94 1426.70 1536.98 1426.66 C 1531.34 1426.83 1525.69 1426.86 1520.07 1426.64 C 1517.14 1426.40 1517.54 1423.09 1517.50 1421.02 C 1517.75 1416.03 1517.07 1410.97 1517.87 1406.05 C 1518.17 1405.75 1518.78 1405.15 1519.08 1404.85 Z" />
<path fill="#dde33a" opacity="1.00" d=" M 1542.07 1405.00 C 1546.19 1403.66 1550.74 1404.71 1555.05 1404.37 C 1557.61 1404.63 1561.32 1403.45 1562.84 1406.25 C 1563.24 1411.15 1562.86 1416.09 1563.03 1421.02 C 1562.82 1422.69 1563.56 1424.94 1561.85 1426.05 C 1560.48 1427.08 1558.64 1426.61 1557.08 1426.79 C 1552.38 1426.65 1547.66 1426.97 1542.98 1426.62 C 1540.35 1425.93 1540.80 1423.00 1540.77 1420.96 C 1540.92 1416.00 1540.50 1411.01 1541.02 1406.08 C 1541.28 1405.81 1541.81 1405.27 1542.07 1405.00 Z" />
<path fill="#dde33a" opacity="1.00" d=" M 1565.14 1405.03 C 1566.94 1404.06 1569.07 1404.46 1571.05 1404.36 C 1575.34 1404.50 1579.65 1404.14 1583.95 1404.55 C 1586.93 1405.20 1586.13 1408.70 1586.30 1410.96 C 1586.11 1415.63 1586.60 1420.34 1585.99 1425.00 C 1585.08 1426.91 1582.71 1426.77 1580.95 1426.79 C 1576.28 1426.68 1571.62 1426.90 1566.97 1426.68 C 1565.06 1426.72 1563.64 1424.82 1564.00 1423.04 C 1564.09 1417.43 1563.73 1411.81 1564.20 1406.24 C 1564.43 1405.94 1564.91 1405.33 1565.14 1405.03 Z" />
<path fill="#dde33a" opacity="1.00" d=" M 2512.19 1405.08 C 2516.62 1403.61 2521.45 1404.73 2526.06 1404.37 C 2528.51 1404.53 2532.80 1403.53 2533.35 1406.98 C 2533.61 1412.30 2533.44 1417.66 2533.45 1423.00 C 2533.55 1424.64 2532.73 1426.49 2530.91 1426.64 C 2525.57 1426.91 2520.22 1426.75 2514.89 1426.73 C 2513.15 1426.85 2511.21 1425.84 2511.22 1423.94 C 2510.93 1419.62 2511.21 1415.29 2511.10 1410.98 C 2511.17 1408.98 2510.71 1406.68 2512.19 1405.08 Z" />
<path fill="#dde33a" opacity="1.00" d=" M 2535.30 1405.25 C 2537.21 1403.89 2539.75 1404.52 2541.99 1404.37 C 2546.25 1404.56 2550.59 1404.00 2554.84 1404.69 C 2556.70 1405.17 2556.68 1407.48 2556.75 1409.05 C 2556.66 1413.99 2556.89 1418.95 2556.64 1423.90 C 2556.65 1426.39 2553.94 1426.93 2552.00 1426.78 C 2546.82 1426.63 2541.61 1427.05 2536.47 1426.54 C 2533.41 1425.43 2534.62 1421.50 2534.37 1419.04 C 2534.85 1414.49 2533.35 1409.47 2535.30 1405.25 Z" />
<path fill="#dde33a" opacity="1.00" d=" M 2559.16 1404.90 C 2562.27 1403.84 2565.70 1404.58 2568.98 1404.39 C 2572.22 1404.58 2575.71 1403.78 2578.83 1405.05 C 2581.29 1408.75 2579.50 1413.72 2580.05 1417.95 C 2579.70 1420.77 2581.23 1425.40 2577.65 1426.59 C 2571.79 1426.90 2565.87 1426.86 2560.02 1426.62 C 2557.38 1426.11 2557.60 1423.00 2557.63 1420.97 C 2557.83 1416.00 2557.26 1410.98 2557.97 1406.06 C 2558.26 1405.77 2558.86 1405.19 2559.16 1404.90 Z" />
<path fill="#dde33a" opacity="1.00" d=" M 2581.09 1406.17 C 2582.23 1404.01 2584.92 1404.43 2586.98 1404.36 C 2591.28 1404.45 2595.60 1404.24 2599.92 1404.46 C 2601.28 1404.41 2603.09 1405.39 2603.05 1406.98 C 2603.28 1413.02 2603.05 1419.08 2603.12 1425.13 C 2601.91 1426.03 2600.60 1426.95 2599.03 1426.75 C 2594.03 1426.76 2589.03 1426.83 2584.06 1426.72 C 2582.59 1426.73 2580.83 1425.56 2580.99 1424.00 C 2580.98 1418.05 2580.83 1412.10 2581.09 1406.17 Z" />
<path fill="#dde33a" opacity="1.00" d=" M 2605.17 1405.04 C 2609.60 1403.64 2614.43 1404.72 2619.05 1404.37 C 2621.48 1404.51 2625.71 1403.59 2626.29 1406.97 C 2626.50 1412.64 2626.48 1418.34 2626.30 1424.03 C 2626.31 1426.26 2623.76 1426.91 2622.00 1426.76 C 2616.80 1426.67 2611.59 1426.99 2606.44 1426.60 C 2602.82 1425.47 2604.35 1420.85 2604.04 1418.05 C 2604.57 1413.78 2602.85 1408.87 2605.17 1405.04 Z" />
<path fill="#dde33a" opacity="1.00" d=" M 2628.19 1405.22 C 2630.19 1403.93 2632.72 1404.49 2635.01 1404.37 C 2639.28 1404.58 2643.63 1403.96 2647.88 1404.71 C 2650.01 1405.56 2649.59 1408.19 2649.70 1410.04 C 2649.58 1414.65 2649.81 1419.28 2649.59 1423.90 C 2649.60 1425.73 2647.79 1426.86 2646.12 1426.73 C 2641.03 1426.79 2635.95 1426.80 2630.89 1426.73 C 2629.20 1426.82 2627.32 1425.80 2627.43 1423.93 C 2627.12 1419.62 2627.42 1415.30 2627.30 1410.99 C 2627.38 1409.05 2626.97 1406.89 2628.19 1405.22 Z" />
<path fill="#dde33a" opacity="1.00" d=" M 1449.21 1428.05 C 1455.09 1427.29 1461.11 1427.79 1467.04 1427.76 C 1468.84 1427.50 1470.23 1429.22 1470.00 1430.96 C 1470.01 1436.31 1470.02 1441.67 1469.99 1447.03 C 1470.13 1448.51 1468.59 1449.94 1467.16 1449.94 C 1461.76 1450.08 1456.35 1450.02 1450.95 1449.97 C 1449.37 1450.04 1447.71 1448.71 1447.88 1447.05 C 1447.65 1442.36 1447.85 1437.67 1447.78 1432.99 C 1447.90 1431.26 1447.44 1429.08 1449.21 1428.05 Z" />
<path fill="#dde33a" opacity="1.00" d=" M 1472.25 1428.15 C 1477.07 1427.13 1482.10 1427.95 1487.01 1427.67 C 1489.12 1427.79 1492.87 1427.06 1493.15 1430.09 C 1493.40 1435.69 1493.29 1441.33 1493.21 1446.95 C 1493.42 1448.71 1491.72 1450.00 1490.10 1449.97 C 1484.68 1450.00 1479.25 1450.10 1473.84 1449.93 C 1472.61 1450.00 1471.79 1448.94 1471.18 1448.08 C 1470.73 1443.40 1471.12 1438.69 1470.98 1434.00 C 1471.05 1432.00 1470.53 1429.62 1472.25 1428.15 Z" />
<path fill="#dde33a" opacity="1.00" d=" M 1495.28 1428.35 C 1497.33 1427.26 1499.79 1427.80 1502.04 1427.68 C 1506.34 1427.85 1510.69 1427.33 1514.97 1427.99 C 1517.03 1429.22 1516.50 1431.91 1516.63 1433.96 C 1516.44 1438.59 1516.93 1443.27 1516.36 1447.89 C 1515.99 1449.83 1513.63 1450.07 1512.05 1450.02 C 1506.96 1449.93 1501.88 1450.14 1496.82 1449.91 C 1494.90 1449.71 1494.02 1447.62 1494.21 1445.93 C 1494.22 1440.63 1493.99 1435.31 1494.34 1430.03 C 1494.58 1429.61 1495.05 1428.77 1495.28 1428.35 Z" />
<path fill="#dde33a" opacity="1.00" d=" M 1519.11 1427.97 C 1524.01 1427.33 1528.99 1427.86 1533.94 1427.67 C 1536.02 1427.72 1539.20 1427.25 1539.73 1430.05 C 1539.94 1436.01 1540.08 1442.04 1539.64 1448.01 C 1537.73 1451.43 1533.12 1449.51 1530.00 1450.00 C 1526.07 1449.48 1521.46 1451.22 1518.05 1448.82 C 1516.88 1444.33 1517.82 1439.56 1517.51 1434.97 C 1517.72 1432.63 1516.74 1429.47 1519.11 1427.97 Z" />
<path fill="#dde33a" opacity="1.00" d=" M 1541.06 1429.19 C 1542.04 1427.37 1544.28 1427.77 1546.02 1427.67 C 1550.96 1427.81 1555.94 1427.45 1560.89 1427.87 C 1562.33 1427.92 1563.05 1429.66 1562.99 1430.95 C 1563.07 1436.67 1562.90 1442.40 1563.06 1448.14 C 1561.92 1449.16 1560.69 1450.29 1559.03 1450.00 C 1553.66 1449.94 1548.29 1450.18 1542.95 1449.87 C 1540.33 1449.13 1540.81 1446.08 1540.77 1444.01 C 1540.95 1439.07 1540.45 1434.09 1541.06 1429.19 Z" />
<path fill="#dde33a" opacity="1.00" d=" M 1564.01 1430.87 C 1563.87 1429.19 1565.22 1427.49 1567.01 1427.76 C 1572.34 1427.62 1577.68 1427.66 1583.02 1427.74 C 1584.93 1427.46 1586.48 1429.18 1586.22 1431.08 C 1586.30 1436.37 1586.35 1441.68 1586.19 1446.98 C 1586.35 1448.68 1584.70 1450.04 1583.09 1449.97 C 1578.04 1450.05 1572.99 1450.01 1567.94 1450.00 C 1566.28 1450.24 1565.11 1449.12 1563.96 1448.18 C 1564.07 1442.41 1563.91 1436.63 1564.01 1430.87 Z" />
<path fill="#dde33a" opacity="1.00" d=" M 1472.99 1450.99 C 1478.68 1451.04 1484.39 1450.93 1490.09 1451.01 C 1491.72 1450.89 1493.44 1452.19 1493.21 1453.98 C 1493.28 1459.62 1493.42 1465.29 1493.14 1470.93 C 1493.12 1472.53 1491.34 1473.31 1489.95 1473.19 C 1484.63 1473.25 1479.30 1473.30 1473.98 1473.16 C 1472.29 1473.34 1470.95 1471.73 1471.03 1470.16 C 1470.92 1464.40 1471.01 1458.64 1471.02 1452.89 C 1471.66 1452.24 1472.31 1451.61 1472.99 1450.99 Z" />
<path fill="#dde33a" opacity="1.00" d=" M 1496.12 1451.13 C 1502.07 1450.86 1508.07 1450.96 1514.04 1451.07 C 1515.98 1451.11 1516.69 1453.32 1516.59 1454.99 C 1516.60 1460.00 1516.69 1465.01 1516.54 1470.03 C 1516.56 1471.42 1515.53 1473.22 1513.95 1473.13 C 1508.28 1473.31 1502.59 1473.30 1496.93 1473.13 C 1495.31 1473.23 1494.16 1471.46 1494.25 1470.03 C 1494.10 1465.04 1494.17 1460.04 1494.20 1455.06 C 1494.04 1453.47 1494.65 1451.86 1496.12 1451.13 Z" />
<path fill="#dde33a" opacity="1.00" d=" M 1519.26 1451.26 C 1524.80 1450.64 1530.44 1451.15 1536.03 1450.99 C 1537.85 1450.59 1539.82 1452.05 1539.79 1453.99 C 1540.00 1458.97 1539.84 1463.98 1539.88 1468.98 C 1540.03 1470.75 1539.20 1473.27 1537.01 1473.14 C 1531.34 1473.29 1525.65 1473.32 1519.99 1473.12 C 1518.37 1473.17 1517.45 1471.33 1517.56 1469.95 C 1517.43 1465.28 1517.57 1460.61 1517.51 1455.96 C 1517.55 1454.26 1517.30 1451.97 1519.26 1451.26 Z" />
<path fill="#dde33a" opacity="1.00" d=" M 1540.85 1454.00 C 1540.62 1452.57 1541.95 1451.78 1542.77 1450.91 C 1548.86 1451.08 1554.96 1450.98 1561.06 1450.98 C 1561.70 1451.61 1562.35 1452.25 1563.02 1452.92 C 1562.94 1458.65 1563.07 1464.39 1562.99 1470.14 C 1563.10 1471.74 1561.74 1473.37 1560.06 1473.16 C 1554.40 1473.24 1548.73 1473.36 1543.09 1473.10 C 1541.49 1473.10 1540.66 1471.37 1540.84 1470.00 C 1540.75 1464.66 1540.73 1459.32 1540.85 1454.00 Z" />
</g>
</svg>
