<?xml version="1.0" standalone="no"?>
<!DOCTYPE svg PUBLIC "-//W3C//DTD SVG 20010904//EN"
 "http://www.w3.org/TR/2001/REC-SVG-20010904/DTD/svg10.dtd">
<svg version="1.0" xmlns="http://www.w3.org/2000/svg"
 width="560.000000pt" height="560.000000pt" viewBox="0 0 560.000000 560.000000"
 preserveAspectRatio="xMidYMid meet">
<metadata>
Created by potrace 1.11, written by Peter Selinger 2001-2013
</metadata>
<g transform="translate(0.000000,560.000000) scale(0.100000,-0.100000)"
fill="#000000" stroke="none">
<path d="M2890 5494 c-232 -29 -406 -81 -615 -183 -105 -52 -271 -150 -345
-204 -14 -10 -63 -46 -110 -80 -74 -53 -125 -96 -200 -168 -9 -8 -26 -22 -38
-31 -28 -19 -253 -240 -347 -339 -130 -138 -195 -216 -315 -375 -66 -88 -123
-163 -128 -169 -25 -33 -90 -137 -158 -255 -140 -243 -207 -402 -264 -630 -39
-153 -48 -236 -44 -410 5 -244 50 -481 127 -660 43 -100 121 -254 141 -280 6
-8 17 -26 24 -40 18 -36 129 -189 179 -247 23 -26 56 -66 74 -88 42 -52 239
-247 308 -305 29 -25 70 -61 91 -80 46 -43 120 -108 151 -135 13 -11 51 -42
84 -70 33 -27 68 -57 78 -65 10 -8 31 -25 45 -38 15 -12 43 -33 62 -45 19 -11
40 -26 47 -32 41 -35 148 -107 208 -140 127 -70 188 -109 256 -165 41 -33 78
-60 82 -60 4 0 36 -13 70 -29 35 -16 83 -32 107 -36 25 -4 47 -8 51 -10 22
-14 60 -16 689 -28 69 -1 159 1 200 6 41 4 107 10 145 13 39 3 77 7 85 9 8 1
55 6 105 10 95 7 126 19 251 95 35 22 67 40 70 40 6 0 147 95 173 116 9 7 52
41 96 76 44 35 85 67 91 73 6 6 33 27 60 48 59 45 256 243 310 312 21 28 42
52 45 55 6 5 117 168 146 215 43 68 138 270 164 345 42 128 96 345 104 420 3
36 8 72 10 80 5 20 18 185 18 235 0 57 -13 276 -17 284 -2 3 -7 40 -10 81 -4
41 -16 118 -26 170 -10 52 -21 106 -24 120 -21 116 -108 394 -196 625 -116
304 -279 644 -429 893 -14 24 -30 51 -36 60 -20 34 -126 193 -135 205 -6 7
-27 35 -48 63 -21 29 -62 80 -92 115 -400 463 -895 691 -1370 633z m380 -259
c215 -56 419 -167 593 -322 63 -57 197 -194 237 -243 19 -24 40 -48 45 -54 19
-20 195 -274 195 -281 0 -2 18 -35 41 -72 60 -98 205 -400 299 -623 45 -107
88 -208 95 -225 106 -242 190 -545 220 -790 3 -27 8 -63 10 -80 18 -118 26
-330 15 -410 -4 -33 -10 -89 -13 -125 -3 -36 -13 -98 -21 -137 -9 -40 -18 -86
-21 -102 -10 -59 -78 -239 -130 -346 -45 -92 -144 -257 -165 -275 -3 -3 -30
-36 -59 -75 -70 -91 -271 -290 -391 -386 -175 -140 -443 -309 -490 -309 -10 0
-21 -4 -24 -9 -3 -4 -25 -12 -48 -16 -24 -4 -50 -9 -58 -11 -8 -1 -31 -6 -50
-9 -19 -4 -46 -10 -60 -14 -36 -9 -557 -7 -670 3 -52 4 -129 9 -170 11 -146 6
-215 16 -245 36 -16 10 -68 38 -115 61 -77 38 -149 80 -265 157 -52 34 -219
153 -225 160 -3 3 -36 33 -75 66 -38 33 -72 62 -75 65 -3 3 -36 32 -75 65 -59
51 -206 185 -396 361 -88 83 -211 226 -311 364 -26 36 -51 70 -55 75 -44 58
-165 311 -201 420 -63 190 -91 490 -62 670 50 317 198 660 421 975 33 47 72
102 87 124 14 21 38 51 52 66 14 15 53 61 85 101 33 41 65 79 70 85 66 73 91
101 155 173 84 95 110 120 306 296 108 97 277 222 461 340 214 137 470 231
688 252 33 3 62 7 64 9 12 11 274 -6 331 -21z"/>
<path d="M2341 3241 c-28 -110 -34 -154 -34 -226 1 -97 28 -191 56 -189 9 1
35 2 56 3 48 1 48 2 57 136 7 114 6 187 -2 263 l-6 53 -59 -2 c-59 -2 -59 -2
-68 -38z"/>
<path d="M3103 3205 c-119 -21 -153 -55 -153 -152 l0 -33 168 2 c92 0 199 -4
237 -10 39 -6 86 -13 106 -15 20 -3 42 -7 47 -11 11 -7 25 10 29 34 11 83 11
97 0 111 -18 23 -78 56 -129 70 -61 16 -220 19 -305 4z"/>
<path d="M3924 2190 c-11 -4 -32 -23 -46 -41 -58 -76 -245 -256 -349 -338 -61
-48 -198 -123 -283 -155 -149 -57 -206 -68 -366 -70 -201 -1 -362 26 -594 101
-149 48 -222 83 -416 198 -226 134 -253 148 -298 141 -20 -3 -47 -5 -59 -6
-13 0 -23 -6 -23 -12 0 -15 165 -179 230 -229 25 -18 47 -36 50 -39 8 -9 142
-96 185 -120 187 -106 392 -183 575 -215 19 -4 69 -13 110 -20 84 -15 335 -18
420 -4 30 5 69 11 85 13 56 9 170 48 253 87 97 45 262 152 323 209 24 23 68
62 98 88 91 78 165 154 209 214 67 91 69 100 42 158 l-23 49 -51 -1 c-28 0
-60 -4 -72 -8z"/>
</g>
</svg>
