<svg width="194" height="125" viewBox="0 0 194 125" fill="none" xmlns="http://www.w3.org/2000/svg">
<path d="M193.405 1.13525C190.533 7.83727 185.345 13.6611 180.976 19.4343C177.37 24.1993 174.332 29.2828 170.579 33.9738C167.301 38.0717 163.29 42.6982 159.186 45.9814C155.466 48.957 152.58 52.588 148.597 55.3036C141.966 59.8251 135.412 64.2744 128.841 68.8457C122.352 73.3594 115.606 78.6348 108.125 81.2752C102.114 83.3965 96.8814 88.0669 91.2066 90.9043C84.8723 94.0715 78.6215 96.6987 72.0252 99.1907C68.2387 100.621 64.4314 101.79 60.5164 102.797C56.6652 103.787 53.336 106.395 49.6213 107.324C43.1113 108.951 37.2115 111.402 30.4399 112.464C24.0506 113.466 16.6352 112.105 10.4529 114.037C8.78053 114.56 0.894912 116.454 1.78286 116.454C2.74257 116.454 9.27533 115.288 9.72397 114.728C11.2687 112.797 15.5843 112.063 17.3198 109.894C21.5699 104.581 28.3069 101.707 33.0486 96.9656C35.1407 94.8735 38.3472 92.507 39.7237 89.9069C40.4554 88.5248 45.982 81.4017 42.8695 86.0706" stroke="black" stroke-linecap="round" stroke-linejoin="round"/>
<path d="M1.4375 116.454C7.66811 119.037 15.1697 118.912 21.156 121.633C23.2441 122.582 25.9664 121.823 28.2148 122.515C30.0199 123.07 31.9853 123.359 33.8925 123.359C37.9364 123.359 41.801 124.049 45.9767 124.049C47.7031 124.049 49.4294 124.049 51.1557 124.049C52.6071 124.049 55.8748 124.049 52.5368 124.049" stroke="black" stroke-linecap="round" stroke-linejoin="round"/>
</svg>
