<svg width="36" height="66" viewBox="0 0 36 66" fill="none" xmlns="http://www.w3.org/2000/svg">
<path d="M14.8424 65.1716C14.8424 48.7893 12.6026 30.4372 16.3223 14.3186C16.6769 12.7819 18.4993 1.70374 17.533 3.42157C15.5344 6.97477 12.5772 15.4043 9.39387 17.951C8.00131 19.065 -3.2332 32.2227 2.73455 22.5251C4.76437 19.2266 5.12206 16.1016 7.84676 13.3769C9.3359 11.8878 11.1044 10.5157 12.4208 8.8701C15.987 4.41237 19.6855 -4.20761 19.6855 6.44853C19.6855 13.6837 27.4835 14.941 31.5243 19.4308C32.8129 20.8626 35.8528 24.95 33.9459 24.6776C31.7715 24.3669 29.7143 19.0518 28.7664 17.3456C25.571 11.5939 21.0294 7.38661 18.4748 1" stroke="black" stroke-linecap="round" stroke-linejoin="round"/>
</svg>
