<svg width="209" height="86" viewBox="0 0 209 86" fill="none" xmlns="http://www.w3.org/2000/svg">
<path d="M1 1C3.48074 3.99148 7.48523 6.37942 11.2429 7.45305C17.2602 9.17227 23.6614 10.6796 29.9363 10.6796C36.8109 10.6796 43.5645 10.398 50.4222 9.86014C58.1093 9.25723 65.8668 9.84239 73.5712 9.19435C82.1675 8.4713 90.3799 6.5956 99.0762 6.53119C109.038 6.45739 118.934 6.44155 128.883 6.53119C140.247 6.63356 151.264 7.62715 162.429 9.86014C171.21 11.6163 181.872 13.2613 189.547 18.3106C198.368 24.1137 206.356 31.3255 207.011 42.4583C207.456 50.0225 206.77 58.8012 202.069 65.0696C198.943 69.2377 193.802 71.9549 189.265 74.2882C184.368 76.8067 179.837 78.9718 174.464 80.3828C166.557 82.4594 157.74 83.3086 149.574 83.8654C139.596 84.5457 128.922 84.4833 118.999 83.2764C102.89 81.3173 86.0924 80.094 70.3703 75.8759C63.924 74.1464 57.1098 72.4332 51.0112 69.6789C47.9085 68.2777 43.0556 66.4351 40.8963 63.6868C34.5913 55.6623 29.1169 44.8811 29.1169 34.5456C29.1169 32.4288 29.1169 30.3119 29.1169 28.195C29.1169 25.9477 27.1714 24.5768 25.0709 23.6881C21.6364 22.235 17.7144 18.6363 15.084 16.0059C12.7427 13.6646 10.5967 11.6595 8.57978 9.06632C7.17552 7.26084 5.77255 3.38628 3.76559 2.3828" stroke="white" stroke-width="2" stroke-linecap="round" stroke-linejoin="round"/>
</svg>
