<svg width="335" height="181" viewBox="0 0 335 181" fill="none" xmlns="http://www.w3.org/2000/svg">
<path d="M2.95459 179.025C12.0961 179.025 21.3706 178.05 30.3731 178.05C39.1077 178.05 46.438 171.602 53.1766 166.949C55.2013 165.551 57.7423 163.429 60.1262 163.429C64.2443 163.429 68.2413 165.379 72.3966 165.379C81.4096 165.379 91.0362 167.631 100.141 168.357C116.927 169.697 133.526 167.328 150.526 167.328C179.723 167.328 208.733 168.303 237.993 168.303C251.332 168.303 264.349 166.375 277.574 165.433C288.428 164.66 298.174 162.378 305.97 154.602C309.707 150.875 313.634 148.589 316.231 143.88C318.528 139.714 319.931 135.472 322.041 131.263C326.891 121.588 327.984 110.488 331.814 100.558C334.682 93.1195 334.421 79.5539 332.791 71.7486C331.478 65.4634 331.14 58.099 327.904 52.3619C325.543 48.175 322.674 44.6265 320.086 40.6108C305.687 18.2708 279.477 13.3917 255.585 8.01079C248.41 6.39495 240.879 6.23713 233.596 5.30315C224.669 4.15839 215.201 2.71641 206.231 2.59552C191.075 2.39123 176.024 1.62077 160.842 1.62077C133.993 1.62077 105.072 -1.07277 78.749 4.76163C60.8129 8.73706 41.4607 14.8766 28.147 28.1556C18.4189 37.8584 12.7275 56.0459 12.7275 69.3117C12.7275 94.5364 17.2378 118.616 29.1243 141.01C31.0323 144.605 38.427 149.621 36.9426 153.898C35.1411 159.089 31.0088 164.257 27.1697 168.086C19.9526 175.285 10.3426 176.894 1 180" stroke="white" stroke-width="2" stroke-linecap="round" stroke-linejoin="round"/>
</svg>
